<svg width="22" height="22" viewBox="0 0 22 22" fill="none" xmlns="http://www.w3.org/2000/svg">
<path d="M21.75 10.875V19.3333C21.75 19.9743 21.4954 20.589 21.0422 21.0422C20.589 21.4954 19.9743 21.75 19.3333 21.75H2.41667C1.77573 21.75 1.16104 21.4954 0.707825 21.0422C0.254612 20.589 0 19.9743 0 19.3333V10.875H21.75ZM15.7083 0C16.0288 0 16.3361 0.127306 16.5628 0.353913C16.7894 0.580519 16.9167 0.887863 16.9167 1.20833V2.41667H19.3333C19.9743 2.41667 20.589 2.67128 21.0422 3.12449C21.4954 3.5777 21.75 4.19239 21.75 4.83333V8.45833H0V4.83333C0 4.19239 0.254612 3.5777 0.707825 3.12449C1.16104 2.67128 1.77573 2.41667 2.41667 2.41667H4.83333V1.20833C4.83333 0.887863 4.96064 0.580519 5.18725 0.353913C5.41385 0.127306 5.7212 0 6.04167 0C6.36214 0 6.66948 0.127306 6.89609 0.353913C7.12269 0.580519 7.25 0.887863 7.25 1.20833V2.41667H14.5V1.20833C14.5 0.887863 14.6273 0.580519 14.8539 0.353913C15.0805 0.127306 15.3879 0 15.7083 0Z" fill="#B7B6B3"/>
</svg>
