<svg width="19" height="15" viewBox="0 0 19 15" fill="none" xmlns="http://www.w3.org/2000/svg">
<path fill-rule="evenodd" clip-rule="evenodd" d="M2.5 0.5C2.03587 0.5 1.59075 0.684374 1.26256 1.01256C0.934374 1.34075 0.75 1.78587 0.75 2.25V10.125C0.75 10.3571 0.842187 10.5796 1.00628 10.7437C1.17038 10.9078 1.39294 11 1.625 11H2.09313C2.03124 11.4343 2.06338 11.8768 2.18737 12.2976C2.31136 12.7184 2.5243 13.1076 2.81178 13.439C3.09926 13.7703 3.45458 14.0361 3.85367 14.2182C4.25276 14.4003 4.68632 14.4945 5.125 14.4945C5.56368 14.4945 5.99724 14.4003 6.39633 14.2182C6.79542 14.0361 7.15074 13.7703 7.43822 13.439C7.7257 13.1076 7.93864 12.7184 8.06263 12.2976C8.18662 11.8768 8.21876 11.4343 8.15688 11H10.8431C10.7812 11.4343 10.8134 11.8768 10.9374 12.2976C11.0614 12.7184 11.2743 13.1076 11.5618 13.439C11.8493 13.7703 12.2046 14.0361 12.6037 14.2182C13.0028 14.4003 13.4363 14.4945 13.875 14.4945C14.3137 14.4945 14.7472 14.4003 15.1463 14.2182C15.5454 14.0361 15.9007 13.7703 16.1882 13.439C16.4757 13.1076 16.6886 12.7184 16.8126 12.2976C16.9366 11.8768 16.9688 11.4343 16.9069 11H17.375C17.6071 11 17.8296 10.9078 17.9937 10.7437C18.1578 10.5796 18.25 10.3571 18.25 10.125V6.625C18.2499 6.48919 18.2181 6.35528 18.1572 6.23388L16.4072 2.73388C16.3346 2.58855 16.223 2.46632 16.0848 2.38086C15.9467 2.2954 15.7875 2.25009 15.625 2.25H11.25C11.25 1.78587 11.0656 1.34075 10.7374 1.01256C10.4092 0.684374 9.96413 0.5 9.5 0.5H2.5ZM14.918 10.6413L14.932 10.6587C15.1399 10.9367 15.2293 11.2857 15.1805 11.6293C15.1318 11.973 14.9489 12.2833 14.6719 12.4925C14.3949 12.7016 14.0463 12.7925 13.7024 12.7453C13.3585 12.698 13.0474 12.5165 12.837 12.2404C12.6267 11.9643 12.5343 11.6161 12.58 11.2721C12.6257 10.928 12.8059 10.616 13.081 10.4045C13.3562 10.1929 13.7039 10.0989 14.0482 10.1432C14.3925 10.1874 14.7052 10.3661 14.918 10.6404V10.6413ZM6.168 10.6413L6.182 10.6587C6.38992 10.9367 6.47928 11.2857 6.43053 11.6293C6.38177 11.973 6.19888 12.2833 5.92187 12.4925C5.64485 12.7016 5.29627 12.7925 4.95241 12.7453C4.60854 12.698 4.29739 12.5165 4.08703 12.2404C3.87668 11.9643 3.78425 11.6161 3.82998 11.2721C3.8757 10.928 4.05586 10.616 4.33102 10.4045C4.60618 10.1929 4.95395 10.0989 5.29821 10.1432C5.64248 10.1874 5.95522 10.3661 6.168 10.6404V10.6413ZM11.2483 5.76575V3.99825H15.0947L15.9697 5.76575H11.2483Z" fill="#3B563C"/>
</svg>
