<svg width="1280" height="224" viewBox="0 0 1280 224" fill="none" xmlns="http://www.w3.org/2000/svg">
<path fill-rule="evenodd" clip-rule="evenodd" d="M-19.1017 55.1472C-37.6256 55.9326 -51.5974 56.9538 -70.1028 58.8747C-73.9529 59.2744 -78.5654 59.6628 -80.353 59.7378C-86.8576 60.0112 -94.3553 61.2842 -103.951 63.7448C-108.224 64.8405 -109.48 65.2598 -110.201 65.8324C-113.624 68.55 -131.468 87.7799 -138.947 96.8106C-139.823 97.8683 -141.68 99.7394 -143.072 100.968C-144.465 102.197 -146.593 104.198 -147.802 105.417C-149.918 107.55 -150.043 107.74 -151.2 110.599C-153.838 117.117 -154.052 120.914 -152.205 128.451L-151.471 131.449L-153.561 135.466C-158.916 145.755 -160.013 149.518 -160 157.553C-159.993 161.898 -159.665 164.209 -158.824 165.83C-158.533 166.389 -158.396 167.415 -158.35 169.371C-158.251 173.527 -157.332 176.838 -155.484 179.687C-154.253 181.585 -152.917 182.556 -150.502 183.309C-146.099 184.681 -142.861 184.32 -138.447 181.968C-138.102 181.784 -138.013 181.95 -137.871 183.042C-136.24 195.573 -126.309 206.041 -113.12 209.132C-103.755 211.326 -93.4553 209.299 -85.7031 203.736C-83.2403 201.969 -79.469 198.114 -77.9197 195.78C-76.3157 193.363 -74.6109 189.736 -73.8876 187.199L-73.2836 185.081L-60.1928 185.028C-45.2925 184.967 -30.1624 184.657 -7.97649 183.959C0.479935 183.693 12.1239 183.356 17.899 183.21C32.2858 182.846 74.9692 182.538 82.7754 182.742C100.735 183.211 109.67 182.896 115.936 181.574L117.721 181.197L119.582 183.014C121.717 185.099 123.81 186.437 125.235 186.627C126.097 186.742 126.367 186.955 127.357 188.298C128.856 190.333 132.194 193.487 134.561 195.105C144.608 201.972 157.844 202.917 168.788 197.551C175.829 194.098 181.477 188.143 184.278 181.217L185.058 179.29L186.708 178.884C188.867 178.353 190.704 177.5 191.852 176.496C192.506 175.923 192.778 175.799 192.778 176.072C192.778 176.652 194.247 177.654 195.592 177.991C196.42 178.198 198.436 178.25 202.217 178.162C206.614 178.06 208.346 177.909 211.278 177.377C213.272 177.015 215.297 176.604 215.778 176.464C216.259 176.324 218.284 176.151 220.278 176.081C225.532 175.897 226.431 175.469 226.91 172.925C227.17 171.54 226.872 170.484 225.934 169.466C224.974 168.424 224.655 167.041 224.893 164.95C226.474 151.057 226.587 149.744 226.602 145.213C226.615 140.989 226.544 140.133 225.94 137.274C224.435 130.141 221.479 124.786 216.326 119.859C213.229 116.898 209.318 114.405 205.653 113.056C204.965 112.802 203.085 111.847 201.475 110.932C196.596 108.161 189.869 105.657 184.027 104.437C181.429 103.895 177.067 103.731 171.902 103.981C170.419 104.053 169.201 103.83 163.902 102.518C143.654 97.5035 132.801 93.4068 115.716 84.3283C92.5103 71.9986 74.7235 65.0184 54.7613 60.4079C44.1498 57.9572 33.7184 56.4579 19.6491 55.3615C15.2372 55.0177 -12.4368 54.8647 -19.1017 55.1472Z" fill="#DFDEDB" fill-opacity="0.31"/>
<path fill-rule="evenodd" clip-rule="evenodd" d="M388.675 48.2151C369.909 48.6749 355.763 49.6939 338.359 51.8394C325.495 53.4252 319.7 54.7368 315.151 57.0919C312.765 58.3269 311.313 59.664 311.311 60.629C311.308 61.5162 310.257 63.4304 309.081 64.6909C307.647 66.2278 303.435 71.4602 300.723 75.0745C297.332 79.594 295.532 82.2793 291.706 88.5238C286.691 96.7083 285.346 98.2568 280.612 101.291C275.139 104.798 274.571 105.703 275.889 108.816C276.43 110.094 276.509 110.577 276.414 112.018C276.306 113.67 276.026 114.409 274.758 116.396C274.497 116.805 274.118 118.004 273.916 119.06C273.714 120.116 272.779 123.815 271.839 127.279C269.749 134.975 268.94 138.703 268.846 141.076L268.774 142.885L267.322 143.822C265.553 144.963 263.328 147.149 262.1 148.95C258.965 153.55 258.422 157.087 259.519 165.791C259.871 168.589 260.206 171.01 260.263 171.173C260.32 171.335 260.262 171.532 260.133 171.611C259.684 171.887 259.913 174.044 260.6 176.005C261.501 178.579 262.434 180.133 263.427 180.716C263.925 181.007 264.279 181.438 264.362 181.852C264.572 182.895 266.306 184.668 267.749 185.316C268.945 185.854 269.317 185.893 272.936 185.869C277.468 185.839 278.822 185.553 283.482 183.635L286.407 182.432L286.811 184.648C288.601 194.453 294.609 203.433 303.15 209.072C314.779 216.749 330.034 217.668 342.512 211.444C349.802 207.807 356.086 201.626 359.607 194.628C360.147 193.555 360.615 192.648 360.646 192.612C360.678 192.576 361.021 192.712 361.41 192.913C362.037 193.238 373.542 193.28 463.823 193.281L565.53 193.283L566.555 192.686C567.497 192.137 567.593 191.987 567.754 190.809L567.929 189.528L568.484 190.981C571.363 198.524 577.647 206.081 584.767 210.564C589.876 213.781 596.311 216.034 602.553 216.792C606.006 217.211 612.65 216.971 615.981 216.307C630.536 213.407 642.396 203.435 647.2 190.061L647.976 187.901L648.234 190.433C648.612 194.151 649.557 195.631 652.073 196.444C655.847 197.665 665.938 194.916 667.077 192.357L667.366 191.708H673.486C680.477 191.708 680.594 191.682 681.846 189.822C683.234 187.762 683.165 185.436 681.666 183.739C680.988 182.971 680.974 182.917 681.433 182.797C681.882 182.68 681.918 182.472 681.906 180.044L681.892 177.417L683.722 171.967C685.651 166.227 686.523 162.609 686.593 160.061L686.635 158.524L686.794 160.099C686.944 161.58 686.956 161.525 686.996 159.176C687.019 157.803 686.944 156.737 686.828 156.808C686.713 156.879 686.557 156.041 686.481 154.945C686.303 152.363 685.736 150.573 684.769 149.542C684.342 149.086 683.063 148.087 681.926 147.321C679.491 145.68 678.987 144.925 678.272 141.842C677.998 140.659 677.116 137.66 676.313 135.176C674.666 130.085 673.795 128.506 671.273 126.031C668.948 123.75 666.706 122.42 661.106 120C658.282 118.78 653.995 116.903 651.58 115.828C644.199 112.544 639.84 111.319 629.047 109.493C618.591 107.725 612.391 107.031 602.975 106.573C599.96 106.426 594.587 106.097 591.036 105.841C587.484 105.586 582.627 105.306 580.241 105.22L575.904 105.063L574.515 104.133C572.61 102.857 570.064 100.632 556.679 88.5427C537.334 71.0697 531.093 65.5726 525.856 61.3951C524.382 60.2189 523.099 59.0616 523.005 58.8228C522.657 57.9399 518.629 55.8394 514.931 54.6116C509.178 52.7022 501.327 51.6684 485.53 50.7407C481.979 50.5319 474.139 50.0417 468.109 49.6512C453.645 48.7143 449.096 48.4767 440.21 48.1945C431.739 47.9257 399.971 47.9383 388.675 48.2151ZM259.016 159.372C259.016 160.771 259.056 161.343 259.105 160.644C259.155 159.945 259.155 158.8 259.105 158.101C259.056 157.401 259.016 157.973 259.016 159.372Z" fill="#DFDEDB" fill-opacity="0.31"/>
<path fill-rule="evenodd" clip-rule="evenodd" d="M912.476 1.04224C912.188 1.61557 911.746 2.82178 911.492 3.72287L911.032 5.36147L910.493 4.79469C910.196 4.48301 909.552 3.97658 909.061 3.66927C908.268 3.17376 908.132 3.14418 907.857 3.40722C907.426 3.81856 907.221 6.07754 906.927 13.6283C906.662 20.4479 906.727 21.7141 907.355 22.0353C907.864 22.2956 909.766 22.2914 910.28 22.0289C910.622 21.8536 910.682 21.8904 910.685 22.2771C910.687 22.5266 910.775 23.7581 910.882 25.0137C910.988 26.2694 911.181 29.7965 911.309 32.8519C911.438 35.9072 911.616 38.7798 911.706 39.2352C911.859 40.02 911.839 40.0688 911.327 40.1673C909.907 40.4398 908.237 42.1642 907.639 43.9761C907.442 44.5746 907.18 45.065 907.058 45.066C905.868 45.0739 903.267 45.5178 902.772 45.7973C901.898 46.2905 901.613 47.2868 901.92 48.7787C902.1 49.6508 902.315 50.0657 902.814 50.4987C903.467 51.0651 903.488 51.0687 905.613 50.9783C907.433 50.9011 907.772 50.9347 907.879 51.2019C908.149 51.8818 909.355 53.3878 909.78 53.5762C910.164 53.7461 910.213 53.8918 910.117 54.575C909.977 55.5747 910.41 58.9611 910.831 60.152C911.739 62.7229 913.31 64.5197 915.337 65.3054C916.257 65.662 916.46 65.816 916.283 66.0207C915.963 66.3886 916.217 67.8136 917.023 70.1774C918.62 74.8555 922.081 82.5329 923.187 83.8468C923.748 84.5134 923.903 84.9549 924.225 86.7898C924.715 89.5904 925.328 91.8662 926.972 96.9905C930.6 108.294 931.378 113.283 930.881 122.049C930.362 131.2 929.077 139.162 927.184 144.966C926.278 147.741 923.899 152.356 922.534 153.984C921.562 155.144 921.399 155.248 919.303 156.03C914.076 157.982 908.824 158.842 898.566 159.427C894.013 159.686 892.221 159.574 886.792 158.689C880.659 157.689 874.927 156.06 870.88 154.167C867.603 152.635 865.323 151.059 862.551 148.41C858.43 144.472 856.758 141.433 856.241 136.941C855.79 133.018 856.915 127.424 858.805 124.195C859.959 122.225 862.257 117.779 863.281 115.54C863.805 114.393 864.918 112.368 865.755 111.039L867.276 108.623L868.35 108.384C870.124 107.989 872.258 106.939 873.502 105.85C875.495 104.105 876.09 102.105 875.919 97.7238C875.838 95.6544 875.707 94.713 875.379 93.8385C874.369 91.145 873.062 89.2406 870.957 87.3953C868.085 84.8767 864.369 83.4322 860.28 83.2444C858.265 83.1519 857.375 83.2363 852.782 83.9557C838.076 86.259 831.488 86.2828 825.288 84.0548C823.563 83.4346 820.339 81.8838 818.723 80.8961C815.743 79.0755 813.093 78.4108 808.863 78.423C804.389 78.4359 801.505 79.2593 800.503 80.8106C800.229 81.2342 799.959 81.5564 799.901 81.5266C799.844 81.4967 799.19 81.1969 798.447 80.8602C795.879 79.6965 796.05 79.7064 778.701 79.7064C760.111 79.7064 759.226 79.7721 757.334 81.2928C755.335 82.8994 755.803 86.4313 758.561 90.5367L759.629 92.1273L759.066 93.6591C758.54 95.0918 758.176 95.7978 755.72 100.151C755.126 101.202 754.815 101.973 754.892 102.203C754.989 102.497 754.606 102.834 752.984 103.879C751.868 104.598 750.404 105.612 749.731 106.132C748.975 106.717 748.596 106.92 748.739 106.665C748.926 106.331 748.892 106.156 748.562 105.755C747.612 104.601 741.497 104.489 738.287 105.566C736.907 106.029 735.332 107.537 734.478 109.211C732.992 112.124 731.706 116.84 731.69 119.427C731.682 120.814 732.028 121.568 732.776 121.795C733.457 122.002 735.19 121.071 736.896 119.582L738.425 118.248L737.85 119.326C737.534 119.918 737.076 120.868 736.833 121.435C736.452 122.324 736.175 122.607 734.842 123.47C733.99 124.022 733.132 124.473 732.935 124.473C732.141 124.473 730.153 125.366 729.327 126.093C728.227 127.061 727.659 128.323 727.464 130.224C727.341 131.436 727.213 131.808 726.768 132.259C726.469 132.562 726.113 133.1 725.978 133.456C725.664 134.285 725.663 136.301 725.977 137.116C726.688 138.957 728.738 140.758 731.865 142.288L733.767 143.219L733.242 144.616C732.459 146.698 731.094 149.408 729.42 152.204C727.887 154.765 724.512 159.688 723.322 161.1C721.406 163.375 720.565 165.236 721.219 165.755C722.533 166.796 729.703 160.758 734.938 154.202C737.897 150.496 739.174 149.271 740.991 148.395C742.193 147.815 742.303 147.799 745.239 147.799C746.976 147.799 748.855 147.915 749.674 148.073L751.095 148.347L750.09 148.88C746.986 150.526 742.394 153.833 740.99 155.434C740.755 155.702 740.132 156.372 739.606 156.923C738.185 158.409 736.525 160.64 735.093 162.989C727.524 175.397 728.753 191.587 738.129 202.982C739.524 204.677 743.068 208.052 744.742 209.279C756.319 217.767 771.167 219.367 784.176 213.529C790.719 210.592 797.13 205.04 800.518 199.374L801.239 198.169L804.571 198.161C806.755 198.156 808.476 198.044 809.566 197.836C810.481 197.663 812.491 197.342 814.035 197.124C818.828 196.448 819.771 196.067 823.43 193.328C825.625 191.685 827.231 190.792 828.688 190.405C829.145 190.283 831.226 189.913 833.313 189.582C839.183 188.65 842.054 187.718 843.254 186.356C843.53 186.042 843.756 185.576 843.756 185.32C843.756 184.515 842.804 183.672 841.444 183.274L840.205 182.91L841.617 182.661C846.919 181.727 856.797 182.01 886.572 183.95C902.919 185.015 910.683 185.236 914.551 184.748C922.472 183.746 931.068 180.178 938.429 174.835C939.343 174.171 940.197 173.534 940.326 173.419C940.454 173.304 941.296 172.586 942.196 171.824C943.996 170.299 946.541 167.679 948.48 165.355L949.733 163.853L950.939 163.934C951.603 163.978 952.717 163.887 953.416 163.732L954.685 163.45L953.797 165.253C949.101 174.794 949.015 185.93 953.564 195.501C955.18 198.901 957.92 202.819 960.481 205.39C961.238 206.151 964.017 208.592 964.833 209.214C968.475 211.99 974.353 214.681 979.374 215.871C983.272 216.795 989.255 217.054 993.376 216.476C1006.36 214.655 1017.38 206.715 1022.7 195.346C1027.88 184.281 1026.91 171.372 1020.13 161.341C1017.45 157.374 1013.61 153.507 1009.87 151.029C1009.04 150.477 1008.4 149.989 1008.44 149.945C1008.49 149.9 1009.62 150.008 1010.96 150.186C1013.62 150.537 1014.79 150.454 1015.34 149.876C1015.61 149.594 1015.79 149.547 1016.07 149.692C1017.07 150.205 1018.21 149.573 1018.47 148.36C1018.79 146.803 1016.42 144.106 1012.62 141.699C1010.56 140.398 1009.26 139.281 1008.8 138.412C1008.66 138.162 1008.33 136.925 1008.05 135.662C1007.47 132.976 1006.68 131.253 1005.48 130.088C1003.6 128.248 1000.42 126.643 997.04 125.829C995.654 125.495 994.322 125.402 989.038 125.268C983.074 125.117 978.23 124.755 978.23 124.46C978.23 124.388 978.509 123.684 978.849 122.897C981.062 117.77 980.326 112.321 976.363 104.508C975.584 102.972 974.563 101.117 974.095 100.385C973.626 99.6538 973.242 99.0108 973.242 98.9564C973.242 98.902 972.927 98.39 972.541 97.8185C972.155 97.247 971.299 95.9752 970.638 94.9925C965.932 87.9953 960.908 81.5509 956.865 77.3241C952.469 72.7294 950.011 70.2842 944.464 64.9918C940.903 61.5937 937.79 58.753 937.547 58.6794C937.18 58.568 937.111 58.4048 937.143 57.7181C937.174 57.0553 937.105 56.8762 936.796 56.8157C936.132 56.6854 933.88 58.3427 933.077 59.5527C932.116 61.0009 931.882 61.7356 931.881 63.3083L931.88 64.6188L930.975 64.6231C930.334 64.6263 929.865 64.7748 929.365 65.1335C928.076 66.0588 928.056 65.9876 929.22 64.6031C931.517 61.8718 932.099 59.7071 930.613 59.4233L930.018 59.3095L930.919 58.6518C931.939 57.9083 932.403 57.1093 932.615 55.7296C932.811 54.4596 933.377 53.716 935.108 52.4553C938 50.3482 939.59 48.4391 939.265 47.4623C939.193 47.2465 938.75 46.7304 938.28 46.3153C935.336 43.7184 934.865 43.1508 934.075 41.255C933.075 38.856 932.514 37.952 931.454 37.0376C929.459 35.3162 927.846 35.1316 925.075 36.3072C922.818 37.2649 921.771 37.5879 921.481 37.4161C920.907 37.0777 920.535 35.2705 919.519 27.8923C918.73 22.1618 918.275 19.3209 917.992 18.3632C917.852 17.889 917.917 17.6146 918.31 17.0153C918.949 16.0409 919.188 14.7738 918.975 13.4881C918.443 10.2769 914.026 0 913.177 0C913.079 0 912.763 0.468908 912.476 1.04224ZM939.096 15.8839C938.133 16.6081 937.803 17.8606 937.819 20.7455C937.832 23.3156 938.082 25.0342 939.245 30.5723C939.68 32.6455 939.693 32.8682 939.388 32.9947C939.203 33.0715 938.569 33.3248 937.979 33.5579C936.748 34.0437 936.336 34.6978 936.39 36.0821C936.475 38.2888 937.468 39.3073 939.535 39.3073C940.753 39.3073 940.817 39.3319 940.955 39.8532C941.035 40.1534 941.104 41.3818 941.108 42.5829C941.116 44.5472 941.058 44.8962 940.533 46.057C940.212 46.7667 939.905 47.5261 939.851 47.7444C939.717 48.284 940.488 49.0324 941.191 49.0443C941.632 49.0519 941.935 49.2947 942.585 50.162C944.382 52.5568 946.366 53.7227 947.727 53.1841C949.041 52.6644 950.126 50.8608 949.906 49.5631L949.792 48.8964L950.969 49.1611C951.617 49.3066 952.551 49.4271 953.046 49.4287C954.797 49.4348 955.546 48.1075 956.597 43.131C958.019 36.3991 958.273 28.7874 957.191 25.3373C957.057 24.9101 956.651 24.2603 956.289 23.8937C955.698 23.2957 955.514 23.227 954.498 23.227C952.928 23.227 950.669 23.8323 949.088 24.6768C947.07 25.7546 945.205 27.8244 945.17 29.0238L945.157 29.4804L944.975 29.0483C944.874 28.8106 944.449 27.2026 944.03 25.4749C942.622 19.6796 941.712 17.212 940.546 16.0306C939.902 15.3785 939.785 15.3666 939.096 15.8839ZM910.807 18.3632C910.955 19.6745 911.013 19.8146 911.296 19.5411C911.413 19.4279 911.329 18.931 911.08 18.264L910.673 17.1721L910.807 18.3632ZM916.288 19.3642C915.677 20.0733 914.351 20.8448 913.744 20.8448H913.127L913.259 22.0855C913.332 22.768 913.487 26.7657 913.603 30.9694C913.795 37.8944 913.952 40.1154 914.272 40.4206C914.522 40.659 917.752 39.5306 918.289 39.0172C919.217 38.1308 919.207 36.0136 918.245 29.7764C917.833 27.1024 917.293 23.5855 917.045 21.9614C916.639 19.2985 916.565 19.0434 916.288 19.3642ZM927.601 66.5543L927.205 67.001L927.673 66.6228C928.112 66.2675 928.235 66.1077 928.069 66.1077C928.029 66.1077 927.819 66.3086 927.601 66.5543ZM925.865 69.096C925.494 69.7607 925.248 70.3594 925.318 70.4263C925.517 70.6165 925.781 70.248 926.064 69.3833C926.207 68.9465 926.419 68.4754 926.534 68.3363C926.65 68.1971 926.699 68.0393 926.642 67.9853C926.586 67.9313 926.236 68.4312 925.865 69.096ZM936.467 70.955C936.446 71.2551 939.331 76.6893 939.796 77.2249C940.033 77.4978 939.801 76.9551 939.279 76.0189C938.757 75.0826 937.914 73.5193 937.406 72.5447C936.897 71.5702 936.474 70.8549 936.467 70.955ZM954.122 98.7645C954.122 98.8736 954.305 99.2491 954.528 99.5988C954.99 100.323 955.801 102.074 957.268 105.514C958.349 108.052 958.48 107.523 957.439 104.819C956.691 102.876 954.122 98.1864 954.122 98.7645ZM950.313 137.287C949.825 138.265 949.893 138.431 950.404 137.507C950.636 137.087 950.789 136.709 950.744 136.666C950.699 136.623 950.505 136.902 950.313 137.287ZM949.569 138.814C949.459 139.089 948.941 140.129 948.418 141.125C947.894 142.121 947.513 142.936 947.57 142.936C947.746 142.936 949.997 138.533 949.878 138.42C949.818 138.362 949.678 138.539 949.569 138.814ZM799.613 160.691C799.676 160.848 799.86 160.927 800.021 160.868C800.372 160.74 800.207 160.405 799.792 160.405C799.622 160.405 799.547 160.526 799.613 160.691ZM984.258 162.019C979.646 162.941 974.457 165.991 972.05 169.196L971.377 170.091L971.919 170.221C972.217 170.292 973.408 170.844 974.566 171.447C977.718 173.089 983.313 175.638 984.721 176.075C986.202 176.534 986.12 176.885 987.252 165.269C987.412 163.631 987.609 162.135 987.689 161.944C987.814 161.648 987.717 161.598 987.034 161.611C986.593 161.618 985.344 161.802 984.258 162.019ZM764.442 162.101C762.006 162.612 757.7 164.235 758.006 164.527C758.209 164.721 766.858 167.225 766.953 167.117C766.983 167.084 767.111 165.996 767.237 164.7C767.364 163.405 767.574 162.221 767.706 162.07C767.904 161.841 767.757 161.798 766.828 161.815C766.214 161.826 765.14 161.955 764.442 162.101ZM994.446 162.495C994.763 162.859 994.652 165.06 994.036 170.629C993.516 175.331 993.489 177.049 993.93 177.211C994.105 177.275 997.309 176.959 1001.05 176.508C1004.79 176.057 1008.15 175.689 1008.52 175.69C1008.89 175.691 1009.2 175.59 1009.2 175.466C1009.2 175.041 1007.38 171.572 1006.53 170.374C1004.02 166.853 1000.17 164.078 995.809 162.66C994.107 162.107 994.109 162.107 994.446 162.495ZM774.558 162.919C774.7 163.277 774.698 164.044 774.552 165.294C774.434 166.309 774.337 167.232 774.337 167.346C774.337 167.482 775.775 167.554 778.546 167.557C780.86 167.56 783.129 167.643 783.586 167.742L784.417 167.922L783.586 167.229C782.265 166.128 779.945 164.587 778.701 163.986C777.74 163.521 774.716 162.391 774.433 162.391C774.386 162.391 774.442 162.628 774.558 162.919ZM968.296 176.131C967.626 178.341 967.423 179.732 967.423 182.099C967.423 185.494 968.184 188.482 969.86 191.672C970.147 192.218 970.415 192.699 970.455 192.742C970.495 192.783 971.021 192.367 971.625 191.815C972.229 191.264 973.273 190.381 973.945 189.853C974.618 189.325 975.936 188.268 976.876 187.504C977.815 186.739 978.948 185.831 979.394 185.486C980.703 184.473 981.556 183.607 981.556 183.292C981.556 182.638 980.463 181.894 973.554 177.845C971.496 176.639 969.57 175.434 969.274 175.168L968.735 174.684L968.296 176.131ZM1009.94 182.02C1009.77 182.289 1008.46 182.555 1002.99 183.437C997.759 184.281 995.524 184.811 994.971 185.339C994.38 185.904 994.618 186.763 996.135 189.545C1000.52 197.584 1000.72 197.983 1000.64 198.626L1000.56 199.257L1001.92 198.311C1006.5 195.123 1009.82 189.272 1010.18 183.781C1010.29 181.996 1010.23 181.568 1009.94 182.02ZM985.443 189.042C984.104 189.961 979.071 193.607 976.968 195.179C974.851 196.762 974.39 196.917 973.545 196.331C973.207 196.096 973.492 196.409 974.178 197.026C976.653 199.251 980.072 201.05 983.427 201.891C985.964 202.527 990.012 202.658 992.715 202.191C994.465 201.889 994.685 201.81 994.268 201.631C993.762 201.414 993.069 200.136 989.526 192.876C988.57 190.917 987.646 189.108 987.473 188.856C987.046 188.233 986.554 188.278 985.443 189.042ZM748.779 189.662C748.789 190.016 750.329 192.807 750.511 192.801C750.601 192.798 751.208 192.31 751.86 191.716L753.046 190.636L750.909 190.037C749.562 189.659 748.775 189.52 748.779 189.662ZM759.379 193.509C758.65 194.027 757.673 194.743 757.207 195.1C755.502 196.402 754.521 196.939 754.082 196.811C752.782 196.434 757.346 199.778 759.245 200.593C762.911 202.168 764.759 202.569 768.413 202.581C770.041 202.587 772.034 202.469 772.937 202.314C774.423 202.06 774.518 202.015 774.131 201.756C773.631 201.422 773.389 201.004 771.74 197.628C771.047 196.209 770.389 194.904 770.278 194.73C770.139 194.511 768.704 194.124 765.679 193.489C763.261 192.981 761.152 192.566 760.992 192.566C760.833 192.566 760.107 192.99 759.379 193.509ZM780.063 196.953C780.253 197.303 780.468 197.99 780.542 198.479L780.676 199.369L782.206 198.204L783.737 197.04L782.518 196.812C781.848 196.686 780.944 196.523 780.509 196.45L779.718 196.316L780.063 196.953Z" fill="#DFDEDB" fill-opacity="0.31"/>
<path fill-rule="evenodd" clip-rule="evenodd" d="M1365.92 55.5416C1364.29 56.8165 1363.65 59.293 1364.23 62.0544C1365.13 66.293 1367.16 70.2438 1374.06 81.1459C1378.74 88.5503 1380.88 92.5943 1381.57 95.3631C1381.99 97.0715 1381.99 97.2185 1381.56 97.6498C1380.91 98.2903 1378.34 98.3414 1363.15 98.0148C1354.48 97.8281 1341.37 97.8385 1321.2 98.0478C1298.95 98.2783 1285.76 98.2734 1266.65 98.0265C1252.79 97.8477 1241.41 97.6664 1241.37 97.6237C1241.33 97.5813 1241.59 96.7337 1241.95 95.7403C1242.78 93.4905 1243.07 91.4302 1242.68 90.698C1242.51 90.3965 1241.82 89.8859 1241.13 89.5636C1238.92 88.5345 1208.72 81.258 1173.95 73.3757C1156.45 69.4093 1153.12 68.7251 1149.93 68.4388C1145.6 68.0495 1142.32 69.4028 1140.88 72.1754C1140.28 73.3376 1140.23 74.3579 1140.73 75.5204C1141.08 76.3149 1141.05 76.3739 1139.65 77.6978C1138.08 79.1857 1137.44 80.742 1137.74 82.3405C1138.1 84.2538 1139.55 85.2486 1144.2 86.7818C1145.63 87.2542 1146.96 87.7417 1147.16 87.865C1147.41 88.0242 1146.97 88.4823 1145.65 89.442C1140.33 93.3005 1130.56 102.579 1124.2 109.814C1114.52 120.826 1103.45 135.022 1095.78 146.285C1089.46 155.56 1086.71 160.939 1085.37 166.63C1085.09 167.79 1084.79 168.739 1084.69 168.739C1084.11 168.739 1083.28 167.283 1083.01 165.789C1082.49 162.865 1081.12 161.987 1078.44 162.869C1076.42 163.537 1074.96 164.933 1073.7 167.42C1073.02 168.769 1072.39 169.663 1072 169.811C1071.67 169.941 1070.78 170.265 1070.02 170.53C1066.96 171.611 1064.02 175.66 1064 178.831C1063.99 181.002 1064.58 181.583 1067.62 182.38C1069.18 182.79 1070.55 183.38 1071.77 184.166C1074.66 186.031 1077.59 186.776 1079.69 186.177C1080.18 186.038 1080.58 186.007 1080.57 186.109C1080.57 186.211 1080.39 187.09 1080.17 188.063C1079.55 190.85 1079.63 193.059 1080.38 193.901C1081.57 195.246 1084.71 195.313 1092.65 194.16C1108.21 191.899 1119.05 188.635 1126.24 184.047C1132.86 179.82 1137.04 174.658 1143.51 162.736C1145.54 159.008 1147.32 156.824 1150.46 154.231C1160.15 146.223 1170.57 142.758 1183.52 143.231C1190.03 143.469 1194.38 144.839 1199.59 148.295C1202.72 150.374 1203.57 151.205 1201.03 149.713C1199.79 148.983 1197.69 147.935 1196.37 147.384C1173.51 137.865 1147.49 149.382 1140.15 172.277C1138.91 176.123 1138.37 179.726 1138.37 184.117C1138.37 190.499 1139.54 195.471 1142.41 201.308C1148.16 212.978 1159.35 221.242 1172.4 223.461C1176.63 224.18 1182.79 224.18 1187.02 223.461C1192.78 222.482 1198.21 220.319 1203.28 216.991C1206.4 214.942 1211.58 209.986 1213.61 207.115C1221.24 196.332 1223.16 183.004 1218.82 170.922C1218.37 169.653 1218.03 168.576 1218.08 168.528C1218.27 168.34 1220.19 173.286 1220.71 175.29C1221.01 176.46 1221.62 179.354 1222.07 181.72C1222.98 186.564 1223.66 188.852 1224.87 191.113C1227.23 195.525 1230.48 197.3 1236.25 197.313C1238.06 197.316 1238.69 197.432 1239.52 197.917C1241.52 199.088 1247.4 199.116 1350.13 198.429C1398.23 198.108 1406.26 197.927 1410.39 197.068C1414.32 196.253 1417.26 194.719 1419.78 192.17C1423.17 188.738 1424.67 185.78 1427.17 177.643C1429.3 170.687 1430.63 168.128 1437.46 157.852C1442.56 150.177 1445.35 147.509 1451.07 144.801C1457.88 141.583 1466.99 140.096 1474.62 140.956C1478.9 141.439 1483.75 142.469 1486.96 143.577C1492.73 145.57 1495.06 147.129 1501.18 153.083C1508.61 160.316 1509.22 161.31 1511.38 169.715C1512.13 172.616 1513.06 175.88 1513.46 176.967C1515 181.217 1519.45 189.055 1521.27 190.704C1524.38 193.53 1531.27 193.02 1538.59 189.422C1542.68 187.41 1545.09 185.007 1545.09 182.942C1545.09 182.082 1545.48 182.192 1547.66 183.667C1550.51 185.591 1551.2 185.887 1552.82 185.88C1558.8 185.855 1562.66 178.291 1560.29 171.237C1559.2 167.994 1556.22 163.303 1554.13 161.557C1551.85 159.657 1550.2 161.481 1548.94 167.286C1548.62 168.759 1548.19 170.124 1548 170.319C1547.8 170.515 1546.95 170.746 1546.09 170.834L1544.54 170.993V170.029C1544.54 168.639 1543.53 162.961 1542.86 160.574C1542 157.523 1538.49 148.975 1536.32 144.652C1533.86 139.749 1531.12 136.134 1526.41 131.579C1519.65 125.04 1512.72 120.286 1502.63 115.274C1492.95 110.47 1481.85 106.166 1472.7 103.67C1459.29 100.016 1437.49 97.3458 1407.3 95.6641C1395.53 95.0084 1394.2 94.6905 1391.7 91.944C1390.28 90.385 1388.47 87.3634 1381.79 75.3843C1375.99 64.9873 1371.75 58.4756 1369.28 56.185C1367.81 54.822 1367.04 54.6731 1365.92 55.5416ZM1465.71 144.141C1447.21 146.106 1432.46 159.205 1428.91 176.831C1428.18 180.484 1428.25 188.115 1429.05 191.789C1432.69 208.48 1445.78 220.72 1463.05 223.586C1466.6 224.175 1474.95 224.025 1478.18 223.316C1494.68 219.693 1506.75 207.91 1510.33 191.932C1511.2 188.046 1511.19 180.158 1510.31 176.099C1508.61 168.323 1505.06 161.894 1499.31 156.21C1493.24 150.198 1486.06 146.4 1477.71 144.782C1474.83 144.225 1468.23 143.872 1465.71 144.141Z" fill="#DFDEDB" fill-opacity="0.31"/>
</svg>
