<svg width="20" height="19" viewBox="0 0 20 19" fill="none" xmlns="http://www.w3.org/2000/svg">
<path d="M17.96 12.45C17.97 12.3 18 12.15 18 12V12.5L17.96 12.45ZM8 12C8 12.71 8.15 13.39 8.42 14H3V15C3 15.55 2.55 16 2 16H1C0.45 16 0 15.55 0 15V7L2.08 1C2.28 0.42 2.84 0 3.5 0H14.5C15.16 0 15.72 0.42 15.92 1L18 7V12C18 9.24 15.76 7 13 7C10.24 7 8 9.24 8 12ZM5 9.5C5 8.67 4.33 8 3.5 8C2.67 8 2 8.67 2 9.5C2 10.33 2.67 11 3.5 11C4.33 11 5 10.33 5 9.5ZM16 6L14.5 1.5H3.5L2 6H16ZM19.87 17.19L15.76 13.08C16.17 12.04 15.94 10.82 15.08 9.97C14.18 9.06 12.83 8.88 11.74 9.38L13.68 11.32L12.33 12.68L10.34 10.73C9.8 11.82 10.05 13.17 10.93 14.08C11.3272 14.4851 11.8341 14.7654 12.3884 14.8862C12.9427 15.007 13.5203 14.9631 14.05 14.76L18.16 18.86C18.34 19.05 18.61 19.05 18.79 18.86L19.83 17.83C20.05 17.65 20.05 17.33 19.87 17.19Z" fill="#3B563C"/>
</svg>
