<svg width="274" height="246" viewBox="0 0 274 246" fill="none" xmlns="http://www.w3.org/2000/svg">
<path fill-rule="evenodd" clip-rule="evenodd" d="M1.59132 103.353C3.88397 115 5.21165 118.289 12.3722 130.041C19.3454 141.482 26.4405 148.291 38.2399 154.861C48.3932 160.516 61.3095 162.457 87.2578 162.23C111.919 162.014 105.168 154.998 204.774 284.336C302.164 410.796 307.471 417.347 315.767 421.283C326.868 426.553 343.18 426.44 354.693 421.016C374.312 411.773 384.052 390.058 377.149 370.959C375.213 365.607 370.023 357.46 364.969 351.844C352.55 338.043 245.223 213.022 206.503 167.254C188.707 146.217 172.41 125.885 170.288 122.075C167.087 116.321 166.679 113.419 167.884 104.995C168.683 99.4109 170.66 91.0163 172.277 86.3376C183.36 54.2836 161.438 18.2551 122.759 4.9567C111.351 1.0344 95.5454 -0.909575 93.6663 1.37752C93.0035 2.18516 96.6042 10.9041 101.667 20.755C119.094 54.656 120.136 60.7658 110.562 72.9776C101.63 84.3681 79.1026 94.7114 65.6492 93.5987C51.5156 92.4298 46.0054 87.0636 33.3152 62.1081C21.3285 38.5321 18.7757 36.1397 13.7492 43.7549C4.0574 58.4356 -1.69725 86.6448 1.59132 103.353ZM314.021 388.778C315.779 399.361 327.106 407.478 338.624 406.411C346.252 405.703 356.612 397.283 358.849 389.975C361.135 382.508 356.846 370.852 350.317 366.79C344.215 362.993 334.538 362.166 327.584 364.849C318.945 368.18 312.49 379.569 314.021 388.778Z" fill="#C66D2C"/>
</svg>
