<svg width="303" height="293" viewBox="0 0 303 293" fill="none" xmlns="http://www.w3.org/2000/svg">
<path fill-rule="evenodd" clip-rule="evenodd" d="M164.854 10.0108C153.71 15.8097 150.772 18.0803 141.012 28.4422C131.512 38.5318 126.761 47.2771 123.695 60.3247C121.055 71.5527 123.04 84.183 131.226 108.258C139.004 131.139 144.071 122.649 43.0426 256.042C-55.7389 386.468 -60.7751 393.469 -62.2358 402.427C-64.1932 414.416 -59.0788 429.56 -50.0315 438.567C-34.6161 453.915 -9.54144 456.144 7.7691 443.71C12.6202 440.224 19.3163 432.83 23.4797 426.36C33.7113 410.46 127.983 271.24 162.668 220.805C178.612 197.624 194.298 176.06 197.523 172.886C202.394 168.097 205.221 166.804 214.16 165.274C220.085 164.26 229.23 163.458 234.485 163.49C270.487 163.716 300.415 131.977 302.086 91.799C302.578 79.9484 299.711 64.6288 296.808 63.6001C295.784 63.2374 288.019 69.3321 279.55 77.1439C250.408 104.03 244.513 106.922 229.156 101.856C214.832 97.1288 197.405 79.4205 194.413 66.5511C191.269 53.031 195.039 46.2146 216.533 26.5519C236.84 7.97784 238.492 4.84942 229.204 2.56847C211.3 -1.83023 180.842 1.69236 164.854 10.0108ZM-29.7076 390.573C-39.9327 395.54 -44.7176 408.635 -40.1016 419.017C-37.0435 425.892 -25.3026 432.883 -17.1836 432.665C-8.88732 432.442 1.65484 424.783 3.78561 417.428C5.77691 410.556 3.65155 401.29 -1.20842 395.663C-7.24581 388.673 -20.8091 386.25 -29.7076 390.573Z" fill="#3B563C"/>
</svg>
