<svg width="27" height="27" viewBox="0 0 27 27" fill="none" xmlns="http://www.w3.org/2000/svg">
<path fill-rule="evenodd" clip-rule="evenodd" d="M13.5 27C15.2728 27 17.0283 26.6508 18.6662 25.9724C20.3041 25.2939 21.7923 24.2995 23.0459 23.0459C24.2995 21.7923 25.2939 20.3041 25.9724 18.6662C26.6508 17.0283 27 15.2728 27 13.5C27 11.7272 26.6508 9.97167 25.9724 8.33377C25.2939 6.69588 24.2995 5.20765 23.0459 3.95406C21.7923 2.70047 20.3041 1.70606 18.6662 1.02763C17.0283 0.349188 15.2728 -2.64174e-08 13.5 0C9.91958 5.33525e-08 6.4858 1.42232 3.95406 3.95406C1.42232 6.4858 0 9.91958 0 13.5C0 17.0804 1.42232 20.5142 3.95406 23.0459C6.4858 25.5777 9.91958 27 13.5 27ZM13.152 18.96L20.652 9.96L18.348 8.04L11.898 15.7785L8.5605 12.4395L6.4395 14.5605L10.9395 19.0605L12.1005 20.2215L13.152 18.96Z" fill="#D9D9D9"/>
</svg>
