<svg width="30" height="30" viewBox="0 0 30 30" fill="none" xmlns="http://www.w3.org/2000/svg">
<path d="M29.25 7.08333V26.0833C29.25 26.9542 28.9402 27.6999 28.3206 28.3206C27.701 28.9413 26.9552 29.2511 26.0833 29.25H3.91667C3.04583 29.25 2.30061 28.9402 1.681 28.3206C1.06139 27.701 0.751056 26.9552 0.75 26.0833V3.91667C0.75 3.04583 1.06033 2.30061 1.681 1.681C2.30167 1.06139 3.04689 0.751056 3.91667 0.75H22.9167L29.25 7.08333ZM15 24.5C16.3194 24.5 17.441 24.0382 18.3646 23.1146C19.2882 22.191 19.75 21.0694 19.75 19.75C19.75 18.4306 19.2882 17.309 18.3646 16.3854C17.441 15.4618 16.3194 15 15 15C13.6806 15 12.559 15.4618 11.6354 16.3854C10.7118 17.309 10.25 18.4306 10.25 19.75C10.25 21.0694 10.7118 22.191 11.6354 23.1146C12.559 24.0382 13.6806 24.5 15 24.5ZM5.5 11.8333H19.75V5.5H5.5V11.8333Z" fill="#F8F7F4"/>
</svg>
