<svg width="15" height="14" viewBox="0 0 15 14" fill="none" xmlns="http://www.w3.org/2000/svg">
<path d="M13.7402 6.25505L11.0977 8.40755L11.8893 11.6122C11.9312 11.7798 11.9192 11.9551 11.8549 12.1163C11.7906 12.2776 11.6768 12.4175 11.5278 12.5187C11.3787 12.6199 11.201 12.6778 11.0168 12.6853C10.8327 12.6927 10.6503 12.6493 10.4924 12.5605L7.49767 10.8652L4.50939 12.5605C4.35152 12.6493 4.16911 12.6927 3.98496 12.6853C3.80081 12.6778 3.6231 12.6199 3.47403 12.5187C3.32497 12.4175 3.21118 12.2776 3.14688 12.1163C3.08258 11.9551 3.07062 11.7798 3.11251 11.6122L3.90294 8.41083L1.25978 6.25505C1.11998 6.14251 1.01889 5.99396 0.969186 5.82802C0.919484 5.66208 0.92338 5.48613 0.980387 5.32225C1.03739 5.15836 1.14497 5.01384 1.28964 4.90679C1.4343 4.79974 1.6096 4.73494 1.79357 4.72052L5.27755 4.43888L6.63751 1.41138C6.70853 1.25252 6.82832 1.11682 6.9818 1.02138C7.13528 0.925929 7.31559 0.875 7.50001 0.875C7.68444 0.875 7.86475 0.925929 8.01823 1.02138C8.1717 1.11682 8.29149 1.25252 8.36251 1.41138L9.72658 4.43888L13.2094 4.72052C13.3934 4.73494 13.5687 4.79974 13.7133 4.90679C13.858 5.01384 13.9656 5.15836 14.0226 5.32225C14.0796 5.48613 14.0835 5.66208 14.0338 5.82802C13.9841 5.99396 13.883 6.14251 13.7432 6.25505H13.7402Z" fill="#315C32"/>
</svg>
