<svg width="40" height="36" viewBox="0 0 40 36" fill="none" xmlns="http://www.w3.org/2000/svg">
<path d="M38.3047 16.3184L30.5531 22.6221L32.8751 32.0073C32.998 32.4979 32.9629 33.0114 32.7743 33.4835C32.5857 33.9557 32.2519 34.3656 31.8147 34.6619C31.3774 34.9583 30.8561 35.1279 30.3159 35.1497C29.7758 35.1715 29.2407 35.0444 28.7776 34.7844L19.9931 29.8195L11.2275 34.7844C10.7644 35.0444 10.2293 35.1715 9.68914 35.1497C9.14897 35.1279 8.62767 34.9583 8.19042 34.6619C7.75318 34.3656 7.41938 33.9557 7.23077 33.4835C7.04215 33.0114 7.00709 32.4979 7.12997 32.0073L9.44856 22.6317L1.69528 16.3184C1.2852 15.9888 0.988669 15.5537 0.842874 15.0678C0.697078 14.5818 0.708508 14.0665 0.875729 13.5866C1.04295 13.1066 1.35852 12.6834 1.78286 12.3699C2.20721 12.0564 2.72143 11.8666 3.26106 11.8244L13.4807 10.9996L17.47 2.13331C17.6783 1.66809 18.0297 1.27069 18.4799 0.991171C18.9301 0.71165 19.459 0.5625 20 0.5625C20.541 0.5625 21.0698 0.71165 21.5201 0.991171C21.9703 1.27069 22.3216 1.66809 22.53 2.13331L26.5312 10.9996L36.7475 11.8244C37.2871 11.8666 37.8013 12.0564 38.2257 12.3699C38.65 12.6834 38.9656 13.1066 39.1328 13.5866C39.3 14.0665 39.3114 14.5818 39.1657 15.0678C39.0199 15.5537 38.7233 15.9888 38.3132 16.3184H38.3047Z" fill="#DFDEDB"/>
</svg>
