<svg width="20" height="20" viewBox="0 0 20 20" fill="none" xmlns="http://www.w3.org/2000/svg">
<path d="M18.9495 9.43335C18.7302 10.3252 18.3361 11.1646 17.7901 11.9031C17.2441 12.6415 16.557 13.2643 15.7686 13.7353C14.9808 14.2056 14.1074 14.5148 13.1991 14.6449C12.2909 14.7751 11.3658 14.7235 10.4776 14.4933C10.2766 14.4384 10.0645 14.4384 9.86345 14.4933C9.66612 14.5373 9.48508 14.6357 9.34095 14.7775L5.43045 18.71C5.28107 18.8529 5.10719 18.9678 4.91712 19.0492C4.72297 19.1303 4.51427 19.1709 4.30387 19.1683C4.09646 19.1705 3.89083 19.13 3.69978 19.0492C3.50849 18.9701 3.33421 18.855 3.18645 18.71L1.2917 16.8125C1.14384 16.6671 1.02827 16.4922 0.952534 16.2992C0.794142 15.9082 0.794142 15.471 0.952534 15.08C1.02827 14.887 1.14384 14.7121 1.2917 14.5667L5.21228 10.6433C5.35623 10.5031 5.45787 10.3252 5.50562 10.13C5.56062 9.93843 5.56062 9.73585 5.50562 9.54335C5.19108 8.33969 5.20521 7.07369 5.54654 5.87736C5.88786 4.68102 6.54389 3.59816 7.4462 2.74168C8.34111 1.89052 9.4482 1.29534 10.6518 1.01835C11.8627 0.728314 13.1299 0.775872 14.3157 1.15585C14.4295 1.18899 14.5326 1.25137 14.6148 1.33677C14.697 1.42218 14.7554 1.52762 14.7841 1.64261C14.8128 1.75759 14.811 1.8781 14.7786 1.99213C14.7463 2.10615 14.6847 2.20972 14.5999 2.29252L11.925 4.97835C11.6012 5.33162 11.4185 5.79163 11.4117 6.27085C11.4008 6.48073 11.4696 6.68697 11.6042 6.84835L13.18 8.43418C13.2986 8.52078 13.4347 8.58041 13.5788 8.60891C13.7229 8.63741 13.8714 8.63409 14.0141 8.59918C14.4028 8.54582 14.7663 8.37651 15.0573 8.11335L17.7321 5.42752C17.8171 5.34563 17.9209 5.28604 18.0345 5.25405C18.1481 5.22207 18.2678 5.21867 18.383 5.24418C18.4988 5.27248 18.6053 5.33047 18.692 5.41245C18.7786 5.49442 18.8424 5.59756 18.877 5.71168C19.2383 6.92267 19.2627 8.20907 18.9495 9.43335Z" fill="#3B563C"/>
</svg>
