<svg width="14" height="17" viewBox="0 0 14 17" fill="none" xmlns="http://www.w3.org/2000/svg">
<path fill-rule="evenodd" clip-rule="evenodd" d="M9.03226 0.217949C9.03226 0.160145 9.00847 0.104709 8.96612 0.0638357C8.92377 0.0229624 8.86634 0 8.80645 0H2.48387C1.82511 0 1.19332 0.252586 0.727509 0.702193C0.261693 1.1518 0 1.7616 0 2.39744V14.6026C0 15.2384 0.261693 15.8482 0.727509 16.2978C1.19332 16.7474 1.82511 17 2.48387 17H11.5161C12.1749 17 12.8067 16.7474 13.2725 16.2978C13.7383 15.8482 14 15.2384 14 14.6026V6.01277C14 5.95497 13.9762 5.89953 13.9339 5.85866C13.8915 5.81778 13.8341 5.79482 13.7742 5.79482H9.70968C9.53001 5.79482 9.35771 5.72593 9.23067 5.60331C9.10363 5.48069 9.03226 5.31439 9.03226 5.14097V0.217949ZM9.70968 8.71795C9.88934 8.71795 10.0616 8.78684 10.1887 8.90946C10.3157 9.03208 10.3871 9.19838 10.3871 9.37179C10.3871 9.54521 10.3157 9.71151 10.1887 9.83413C10.0616 9.95675 9.88934 10.0256 9.70968 10.0256H4.29032C4.11066 10.0256 3.93836 9.95675 3.81131 9.83413C3.68427 9.71151 3.6129 9.54521 3.6129 9.37179C3.6129 9.19838 3.68427 9.03208 3.81131 8.90946C3.93836 8.78684 4.11066 8.71795 4.29032 8.71795H9.70968ZM9.70968 12.2051C9.88934 12.2051 10.0616 12.274 10.1887 12.3966C10.3157 12.5193 10.3871 12.6856 10.3871 12.859C10.3871 13.0324 10.3157 13.1987 10.1887 13.3213C10.0616 13.4439 9.88934 13.5128 9.70968 13.5128H4.29032C4.11066 13.5128 3.93836 13.4439 3.81131 13.3213C3.68427 13.1987 3.6129 13.0324 3.6129 12.859C3.6129 12.6856 3.68427 12.5193 3.81131 12.3966C3.93836 12.274 4.11066 12.2051 4.29032 12.2051H9.70968Z" fill="#3B563C"/>
</svg>
