<svg width="20" height="20" viewBox="0 0 20 20" fill="none" xmlns="http://www.w3.org/2000/svg">
<path d="M10.6875 15.6265V12.75H9.3125V15.6265C8.85379 15.7887 8.46719 16.1078 8.22101 16.5275C7.97483 16.9471 7.88493 17.4403 7.96721 17.9198C8.04948 18.3993 8.29863 18.8343 8.67061 19.1479C9.0426 19.4615 9.51347 19.6335 10 19.6335C10.4865 19.6335 10.9574 19.4615 11.3294 19.1479C11.7014 18.8343 11.9505 18.3993 12.0328 17.9198C12.1151 17.4403 12.0252 16.9471 11.779 16.5275C11.5328 16.1078 11.1462 15.7887 10.6875 15.6265Z" fill="#3B563C"/>
<path d="M16.875 7.25001C16.267 7.25182 15.6768 7.45528 15.1968 7.82852C14.7168 8.20175 14.3742 8.72367 14.2227 9.31251H5.77742C5.61009 8.66443 5.21214 8.09963 4.65817 7.72397C4.10419 7.34831 3.43223 7.18759 2.76823 7.27193C2.10424 7.35626 1.49379 7.67987 1.05133 8.1821C0.608858 8.68432 0.364746 9.33067 0.364746 10C0.364746 10.6693 0.608858 11.3157 1.05133 11.8179C1.49379 12.3201 2.10424 12.6437 2.76823 12.7281C3.43223 12.8124 4.10419 12.6517 4.65817 12.276C5.21214 11.9004 5.61009 11.3356 5.77742 10.6875H14.2227C14.3521 11.1843 14.6183 11.6348 14.9909 11.9879C15.3636 12.341 15.8277 12.5825 16.3307 12.685C16.8337 12.7876 17.3554 12.7471 17.8365 12.568C18.3177 12.389 18.7389 12.0786 19.0525 11.6722C19.3661 11.2658 19.5595 10.7795 19.6107 10.2688C19.6618 9.75795 19.5687 9.24305 19.3419 8.7825C19.1152 8.32195 18.7638 7.93422 18.3277 7.66333C17.8917 7.39244 17.3884 7.24924 16.875 7.25001ZM3.12505 11.375C2.8531 11.375 2.58726 11.2944 2.36114 11.1433C2.13502 10.9922 1.95878 10.7774 1.85471 10.5262C1.75064 10.2749 1.72341 9.99848 1.77647 9.73176C1.82952 9.46503 1.96048 9.22003 2.15278 9.02774C2.34507 8.83544 2.59007 8.70448 2.8568 8.65143C3.12352 8.59837 3.39999 8.6256 3.65124 8.72967C3.90249 8.83374 4.11723 9.00998 4.26832 9.2361C4.4194 9.46222 4.50005 9.72806 4.50005 10C4.4995 10.3645 4.35446 10.7139 4.09672 10.9717C3.83897 11.2294 3.48955 11.3745 3.12505 11.375ZM16.875 11.375C16.6031 11.375 16.3373 11.2944 16.1111 11.1433C15.885 10.9922 15.7088 10.7774 15.6047 10.5262C15.5006 10.2749 15.4734 9.99848 15.5265 9.73176C15.5795 9.46503 15.7105 9.22003 15.9028 9.02774C16.0951 8.83544 16.3401 8.70448 16.6068 8.65143C16.8735 8.59837 17.15 8.6256 17.4012 8.72967C17.6525 8.83374 17.8672 9.00998 18.0183 9.2361C18.1694 9.46222 18.25 9.72806 18.25 10C18.2495 10.3645 18.1045 10.7139 17.8467 10.9717C17.589 11.2294 17.2396 11.3745 16.875 11.375Z" fill="#3B563C"/>
<path d="M12.0625 2.43725C12.064 2.05877 11.9614 1.68715 11.7659 1.3631C11.5703 1.03904 11.2894 0.775047 10.9538 0.600014C10.6182 0.424981 10.241 0.345663 9.86332 0.370746C9.48566 0.395829 9.1222 0.524345 8.81271 0.742221C8.50323 0.960098 8.25966 1.25893 8.10869 1.606C7.95772 1.95307 7.90516 2.33499 7.95676 2.70994C8.00837 3.08489 8.16216 3.43841 8.40128 3.73179C8.64041 4.02516 8.95565 4.24708 9.31248 4.37325V7.24975H10.6875V4.37325C11.0887 4.23226 11.4363 3.97039 11.6826 3.62369C11.9288 3.27699 12.0615 2.86249 12.0625 2.43725Z" fill="#3B563C"/>
</svg>
