<svg width="19" height="19" viewBox="0 0 19 19" fill="none" xmlns="http://www.w3.org/2000/svg">
<path d="M7.98703 0.908953C8.40938 0.565522 8.94566 0.376953 9.5 0.376953C10.0543 0.376953 10.5906 0.565522 11.013 0.908953L18.0208 6.60627C18.2787 6.81601 18.4859 7.07688 18.628 7.3708C18.7701 7.66473 18.8437 7.98468 18.8438 8.30852V17.2185C18.8438 17.6744 18.6544 18.1115 18.3175 18.4339C17.9805 18.7562 17.5234 18.9373 17.0469 18.9373H14.1719C13.6953 18.9373 13.2383 18.7562 12.9013 18.4339C12.5643 18.1115 12.375 17.6744 12.375 17.2185V12.7498C12.375 12.3862 12.2244 12.0374 11.9563 11.7797C11.6881 11.522 11.3241 11.3764 10.944 11.3748H8.05531C7.67531 11.3766 7.31152 11.5223 7.04349 11.7799C6.77546 12.0376 6.625 12.3863 6.625 12.7498V17.2185C6.625 17.4442 6.57852 17.6677 6.48822 17.8763C6.39792 18.0848 6.26556 18.2743 6.09871 18.4339C5.93185 18.5935 5.73377 18.7201 5.51576 18.8064C5.29775 18.8928 5.06409 18.9373 4.82812 18.9373H1.95312C1.47656 18.9373 1.01952 18.7562 0.682543 18.4339C0.345563 18.1115 0.15625 17.6744 0.15625 17.2185V8.30852C0.156269 7.98468 0.229878 7.66473 0.371978 7.3708C0.514079 7.07688 0.721276 6.81601 0.979219 6.60627L7.98703 0.908953Z" fill="#3B563C"/>
</svg>
