<svg width="390" height="382" viewBox="0 0 390 382" fill="none" xmlns="http://www.w3.org/2000/svg">
<path fill-rule="evenodd" clip-rule="evenodd" d="M334.161 7.99013C321.628 12.1299 318.178 14.0647 306.169 23.6986C294.479 33.0798 287.909 41.9783 282.221 56.1406C277.324 68.3274 276.884 83.1274 280.546 112.308C284.026 140.041 290.869 131.502 161.444 260.942C34.8969 387.503 28.3765 394.355 25.1302 404.22C20.7828 417.422 23.0514 435.77 30.543 448.005C43.3074 468.854 68.5174 476.912 88.655 466.584C94.2984 463.689 102.594 456.755 108.117 450.315C121.693 434.487 245.347 296.932 290.689 247.218C311.531 224.369 331.792 203.302 335.712 200.403C341.631 196.03 344.775 195.182 354.218 195.411C360.476 195.563 369.986 196.664 375.354 197.859C412.133 206.045 448.952 176.544 458.52 131.222C461.342 117.855 461.406 99.802 458.639 97.9929C457.662 97.3548 448.527 102.575 438.338 109.594C403.273 133.749 396.677 135.739 381.961 126.596C368.235 118.066 353.875 94.0903 353.332 78.7964C352.762 62.7294 357.951 55.8081 383.782 38.1823C408.185 21.5329 410.486 18.339 401.433 13.6997C383.981 4.75431 352.14 2.05177 334.161 7.99013ZM60.7186 397.904C49.2889 401.3 41.8333 415.138 44.5235 427.961C46.3064 436.453 56.9474 446.988 65.2941 448.528C73.823 450.103 86.1038 443.714 89.7217 435.82C93.1029 428.443 92.7415 417.439 88.8716 409.97C84.064 400.691 70.6656 394.948 60.7186 397.904Z" fill="#C66D2C"/>
<path fill-rule="evenodd" clip-rule="evenodd" d="M35.4015 176.154C38.1554 188.115 39.6498 191.476 47.536 203.425C55.2157 215.058 62.8894 221.908 75.513 228.394C86.3756 233.978 100.042 235.66 127.376 234.782C153.355 233.948 146.038 226.876 254.746 357.864C361.036 485.939 366.818 492.567 375.673 496.422C387.524 501.584 404.708 501.064 416.682 495.181C437.086 485.157 446.719 462.508 438.89 442.973C436.695 437.498 430.989 429.22 425.502 423.55C412.015 409.617 295.296 283.275 253.169 237.009C233.807 215.743 216.045 195.168 213.699 191.288C210.159 185.431 209.644 182.447 210.67 173.723C211.349 167.942 213.188 159.231 214.757 154.363C225.504 121.013 201.359 84.38 160.217 71.6172C148.083 67.8529 131.373 66.239 129.459 68.6456C128.784 69.4954 132.831 78.4029 138.452 88.442C157.799 122.991 159.074 129.27 149.341 142.108C140.26 154.083 116.823 165.315 102.615 164.5C87.6889 163.645 81.727 158.244 67.6311 132.808C54.3164 108.778 51.5572 106.373 46.4818 114.355C36.696 129.744 31.4513 158.995 35.4015 176.154ZM372.89 462.925C375.05 473.801 387.221 481.896 399.326 480.51C407.343 479.59 418.014 470.644 420.159 463.049C422.352 455.287 417.494 443.365 410.496 439.336C403.957 435.569 393.736 434.956 386.487 437.896C377.481 441.549 371.01 453.46 372.89 462.925Z" fill="#3B563C"/>
</svg>
