<svg width="371" height="416" viewBox="0 0 371 416" fill="none" xmlns="http://www.w3.org/2000/svg">
<path fill-rule="evenodd" clip-rule="evenodd" d="M198.161 7.99011C185.628 12.1299 182.178 14.0647 170.169 23.6985C158.479 33.0798 151.909 41.9783 146.221 56.1406C141.324 68.3274 140.884 83.1274 144.546 112.308C148.026 140.041 154.869 131.502 25.4438 260.942C-101.103 387.503 -107.623 394.355 -110.87 404.22C-115.217 417.422 -112.949 435.77 -105.457 448.005C-92.6926 468.854 -67.4826 476.912 -47.345 466.584C-41.7016 463.689 -33.4064 456.755 -27.8825 450.315C-14.3073 434.487 109.347 296.932 154.689 247.218C175.531 224.369 195.792 203.302 199.712 200.403C205.631 196.03 208.775 195.182 218.218 195.411C224.475 195.563 233.986 196.664 239.354 197.859C276.133 206.045 312.952 176.544 322.52 131.222C325.342 117.855 325.406 99.802 322.639 97.9928C321.662 97.3548 312.527 102.575 302.338 109.593C267.272 133.749 260.677 135.739 245.961 126.596C232.235 118.066 217.875 94.0902 217.332 78.7964C216.762 62.7294 221.951 55.8081 247.782 38.1823C272.185 21.5329 274.486 18.339 265.433 13.6997C247.981 4.75429 216.14 2.05175 198.161 7.99011ZM-75.2814 397.904C-86.7111 401.3 -94.1667 415.138 -91.4765 427.961C-89.6936 436.453 -79.0526 446.988 -70.7059 448.528C-62.177 450.103 -49.8962 443.714 -46.2782 435.82C-42.8971 428.443 -43.2584 417.439 -47.1284 409.97C-51.936 400.691 -65.3344 394.948 -75.2814 397.904Z" fill="#C66D2C"/>
<path fill-rule="evenodd" clip-rule="evenodd" d="M-75.5985 207.154C-72.8446 219.115 -71.3502 222.476 -63.464 234.425C-55.7843 246.058 -48.1106 252.908 -35.487 259.394C-24.6244 264.978 -10.9585 266.66 16.3763 265.782C42.3551 264.948 35.0379 257.876 143.746 388.864C250.036 516.939 255.818 523.567 264.673 527.422C276.524 532.584 293.708 532.064 305.682 526.181C326.086 516.157 335.719 493.508 327.89 473.973C325.695 468.498 319.989 460.22 314.502 454.55C301.015 440.617 184.296 314.275 142.169 268.009C122.807 246.743 105.045 226.168 102.699 222.288C99.1588 216.431 98.6444 213.447 99.6697 204.723C100.349 198.942 102.188 190.231 103.757 185.363C114.504 152.013 90.3587 115.38 49.2174 102.617C37.0827 98.8529 20.3725 97.239 18.459 99.6456C17.7841 100.495 21.8312 109.403 27.4522 119.442C46.7987 153.991 48.0736 160.27 38.3405 173.108C29.2598 185.083 5.82309 196.315 -8.38486 195.5C-23.3111 194.645 -29.273 189.244 -43.3689 163.808C-56.6836 139.778 -59.4428 137.373 -64.5182 145.355C-74.304 160.744 -79.5487 189.995 -75.5985 207.154ZM261.89 493.925C264.05 504.801 276.221 512.896 288.326 511.51C296.343 510.59 307.014 501.644 309.159 494.049C311.352 486.287 306.494 474.365 299.496 470.336C292.957 466.569 282.736 465.956 275.487 468.896C266.481 472.549 260.01 484.46 261.89 493.925Z" fill="#3B563C"/>
</svg>
