<svg width="14" height="14" viewBox="0 0 14 14" fill="none" xmlns="http://www.w3.org/2000/svg">
<path d="M9.52914 0.763839C9.77255 0.520434 10.0615 0.327354 10.3795 0.195624C10.6976 0.0638942 11.0384 -0.00390625 11.3826 -0.00390625C11.7269 -0.00390625 12.0677 0.0638942 12.3857 0.195624C12.7038 0.327354 12.9927 0.520433 13.2361 0.763839C13.4795 1.00724 13.6726 1.29621 13.8044 1.61423C13.9361 1.93226 14.0039 2.27311 14.0039 2.61734C14.0039 2.96157 13.9361 3.30242 13.8044 3.62045C13.6726 3.93847 13.4795 4.22743 13.2361 4.47084L12.4571 5.24984L8.75014 1.54284L9.52914 0.763839ZM8.04314 2.24984L1.65714 8.63584C1.28327 9.00995 1.01666 9.47755 0.885142 9.98984L0.015142 13.3758C-0.0064327 13.4601 -0.00566022 13.5485 0.0173831 13.6324C0.0404265 13.7162 0.0849438 13.7926 0.146539 13.854C0.208135 13.9154 0.284678 13.9597 0.368612 13.9824C0.452545 14.0052 0.540965 14.0057 0.625142 13.9838L4.01014 13.1148C4.52252 12.9835 4.99018 12.7169 5.36414 12.3428L11.7501 5.95684L8.04314 2.24984Z" fill="#3B563C"/>
</svg>
