<svg width="15" height="20" viewBox="0 0 15 20" fill="none" xmlns="http://www.w3.org/2000/svg">
<path d="M15.0001 19.0004L15.0001 1.0004C14.9995 0.818161 14.9493 0.639527 14.8547 0.483727C14.7602 0.327926 14.6249 0.200861 14.4636 0.116207C14.3022 0.0315532 14.1207 -0.00748338 13.9388 0.00329971C13.7569 0.0140828 13.5814 0.0742765 13.4311 0.177402L0.431105 9.1774C-0.107895 9.5504 -0.107895 10.4484 0.431105 10.8224L13.4311 19.8224C13.581 19.9266 13.7567 19.9877 13.9389 19.999C14.1211 20.0104 14.303 19.9716 14.4647 19.8869C14.6264 19.8022 14.7619 19.6747 14.8562 19.5184C14.9506 19.3622 15.0004 19.183 15.0001 19.0004Z" fill="#315C32"/>
</svg>
