<svg width="21" height="25" viewBox="0 0 21 25" fill="none" xmlns="http://www.w3.org/2000/svg">
<path d="M12.3314 23.5609C15.3349 20.8923 20.6786 15.4405 20.6786 10.4375C20.6786 7.66929 19.5893 5.01447 17.6503 3.05707C15.7113 1.09966 13.0815 0 10.3393 0C7.59716 0 4.96731 1.09966 3.02831 3.05707C1.08932 5.01447 4.08613e-08 7.66929 0 10.4375C0 15.4405 5.34198 20.8923 8.34727 23.5609C8.89545 24.0548 9.60453 24.3278 10.3393 24.3278C11.0741 24.3278 11.7832 24.0548 12.3314 23.5609ZM6.89287 10.4375C6.89287 9.51475 7.25598 8.62981 7.90231 7.97734C8.54865 7.32487 9.42526 6.95832 10.3393 6.95832C11.2534 6.95832 12.13 7.32487 12.7763 7.97734C13.4226 8.62981 13.7857 9.51475 13.7857 10.4375C13.7857 11.3602 13.4226 12.2451 12.7763 12.8976C12.13 13.5501 11.2534 13.9166 10.3393 13.9166C9.42526 13.9166 8.54865 13.5501 7.90231 12.8976C7.25598 12.2451 6.89287 11.3602 6.89287 10.4375Z" fill="#3B563C"/>
</svg>
