<svg width="79" height="30" viewBox="0 0 79 30" fill="none" xmlns="http://www.w3.org/2000/svg">
<path fill-rule="evenodd" clip-rule="evenodd" d="M42.3834 0.941523C42.7245 0.151295 42.7776 0.0731352 43.0139 0.0136295C43.1831 -0.0289929 43.5761 0.0256423 44.4689 0.215922C44.7857 0.283436 45.2048 0.361 45.4002 0.38826C46.4681 0.537361 46.768 0.611325 47.0408 0.792864C47.2588 0.937961 47.3805 1.14058 47.4165 1.41836C47.4281 1.50836 47.4419 1.82023 47.4471 2.11141C47.4523 2.40258 47.4659 2.67772 47.4773 2.72283C47.5198 2.89045 47.587 2.94329 48.6162 3.61732C49.1609 3.97408 49.2707 4.02522 49.4898 4.02423C49.6599 4.02346 49.7218 4.00365 50.2737 3.77331C50.8692 3.52482 51.0806 3.50175 51.3851 3.65209C51.6288 3.77235 51.8081 3.98494 52.1399 4.5467C52.3032 4.82322 52.4871 5.09975 52.8133 5.55922C53.4575 6.46659 53.6211 6.73541 53.6847 6.99161C53.7428 7.22544 53.6977 7.42122 53.5327 7.65151C53.4931 7.70674 53.3267 7.87449 53.163 8.02431C52.8445 8.31566 52.7323 8.44379 52.6454 8.6159C52.5946 8.71645 52.5901 8.74307 52.584 8.98697C52.5708 9.51424 52.7583 10.3751 52.9857 10.8305C53.0498 10.9589 53.0817 10.9987 53.1817 11.0746C53.3357 11.1917 53.5748 11.3044 53.9346 11.4296C54.3995 11.5913 54.5599 11.6954 54.665 11.9035C54.7204 12.0134 54.7218 12.0232 54.7209 12.2953C54.7199 12.5624 54.7134 12.6079 54.5711 13.3445L54.3166 14.6633C54.0682 15.9524 53.9521 16.2698 53.685 16.3899C53.6172 16.4204 53.54 16.4248 53.0226 16.4276C52.7006 16.4294 52.3825 16.4399 52.3159 16.451C51.9645 16.5093 51.6628 16.7746 51.262 17.3777C50.9731 17.8125 50.7457 18.2386 50.7261 18.382C50.6798 18.7209 51.0277 19.4162 51.8128 20.5538C51.9951 20.818 52.8296 21.9334 53.1092 22.2868C53.1637 22.3556 53.3849 22.6458 53.6007 22.9317C53.8166 23.2176 54.188 23.707 54.4262 24.0194C55.8085 25.8323 55.8389 25.8751 55.958 26.1755C56.0428 26.3892 56.1094 26.634 56.1346 26.8242C56.1633 27.04 56.1465 27.5621 56.1049 27.7493C55.9509 28.4419 55.5716 29.0039 55.0003 29.3856C54.0152 30.0438 52.716 29.9361 51.8493 29.1243C51.7051 28.9893 51.2852 28.4508 49.91 26.6376C48.3161 24.536 47.975 24.087 47.6575 23.6729C47.4668 23.424 47.1483 23.0039 46.9497 22.7392C46.4706 22.1002 46.0255 21.6448 45.8108 21.5738C45.7568 21.5559 45.6934 21.5559 45.5275 21.5738C44.7769 21.6548 44.035 21.8986 43.757 22.1555C43.6586 22.2464 43.5052 22.5494 43.3737 22.9124C43.1534 23.5208 43.0151 23.6794 42.6604 23.7298C42.4768 23.7559 42.3191 23.7353 41.4749 23.575C41.0835 23.5007 40.5559 23.4008 40.3025 23.3531C39.1452 23.1351 38.6488 22.9906 38.4869 22.8246C38.3718 22.7065 38.3676 22.6788 38.3817 22.1335C38.396 21.5853 38.3691 21.256 38.299 21.1181C38.2004 20.9244 37.9901 20.702 37.6817 20.4651C37.4171 20.2619 36.9977 19.994 36.7019 19.8392C36.5598 19.7649 36.5297 19.7565 36.3779 19.7493C36.1663 19.7391 36.0009 19.7821 35.6779 19.9313C35.1052 20.1957 34.9562 20.2461 34.7466 20.2461C34.5577 20.2461 34.4617 20.2053 34.3288 20.0687C34.1827 19.9184 33.9743 19.6542 33.6864 19.2545C33.0184 18.3267 32.5863 17.652 32.3056 17.0985C32.0975 16.6883 32.069 16.5391 32.1581 16.3272C32.2274 16.1625 32.3596 15.9958 32.5798 15.7953C33.0205 15.3942 33.1491 15.2306 33.2112 14.9921C33.2592 14.8077 33.2548 14.7246 33.1688 14.1916C33.0184 13.2595 32.9537 13.0723 32.6931 12.8154C32.528 12.6526 32.4083 12.5833 31.9631 12.3927C31.3133 12.1145 31.1744 12.0099 31.1065 11.7475C31.0384 11.4844 31.0606 11.3249 31.4026 9.61599C31.6965 8.14715 31.709 8.08899 31.7805 7.86146C31.8674 7.5849 31.9485 7.46494 32.0938 7.3981C32.1747 7.36087 32.2282 7.35713 32.8528 7.34516C33.7437 7.32806 33.934 7.29441 34.056 7.13245C34.0825 7.09734 34.1673 6.96033 34.2445 6.82797C34.3217 6.69562 34.4559 6.48338 34.5427 6.35632C34.8269 5.94018 34.9298 5.78063 34.9958 5.65364C35.0582 5.53356 35.0608 5.51996 35.0608 5.31675C35.0608 5.06692 35.0387 4.9898 34.84 4.5467C34.6129 4.04008 34.5548 3.81826 34.5911 3.59645C34.6126 3.46529 34.7003 3.27963 34.7889 3.17764C34.8935 3.05728 35.4485 2.66844 36.5104 1.97149C36.6319 1.89177 36.8868 1.71183 37.0769 1.57158C37.691 1.11846 38.0472 0.995484 38.4141 1.10989C38.6096 1.17086 38.7607 1.28708 39.1601 1.68356C39.5685 2.08902 39.6365 2.13657 39.8513 2.16662C39.9997 2.18739 40.2556 2.16668 40.5068 2.11354C41.0278 2.00333 41.3422 1.93868 41.5392 1.90124C41.6596 1.87833 41.8001 1.8415 41.8513 1.81942C42.0218 1.7459 42.0721 1.66283 42.3834 0.941523ZM76.2159 4.68365C76.3606 4.11652 76.8412 3.701 77.4069 3.65388C77.8314 3.61851 78.187 3.73955 78.4987 4.02545C78.6506 4.16481 78.814 4.44316 78.8792 4.6735C78.9125 4.79103 78.9141 4.98249 78.9141 8.65685C78.9141 12.2953 78.9122 12.5239 78.88 12.6419C78.7099 13.2658 78.1703 13.6817 77.5317 13.681C76.9921 13.6803 76.563 13.4111 76.3206 12.921C76.3004 12.8802 76.283 12.8503 76.2681 12.8193C76.1709 12.6164 76.1788 12.3631 76.1784 8.65512C76.1781 4.9133 76.1789 4.82884 76.2159 4.68365ZM39.6113 5.47567C40.4241 5.06746 41.4242 4.79446 42.3665 4.72356C42.573 4.70802 43.2263 4.71197 43.4533 4.73014C44.3618 4.80283 45.245 5.04428 46.0141 5.43019C47.1426 5.99645 48.052 6.80616 48.7733 7.8868C49.3835 8.80102 49.8011 9.9226 49.9416 11.0248C49.9837 11.3546 49.9988 12.0291 49.9717 12.3723C49.8432 14.0019 49.2591 15.4046 48.2082 16.6076C47.0825 17.8963 45.4319 18.7863 43.7597 19.0064C43.4424 19.0482 42.6686 19.0632 42.2937 19.0349C41.0176 18.9384 39.8471 18.5372 38.8019 17.8381C37.9733 17.2839 37.2208 16.4812 36.6961 15.592C36.174 14.7074 35.8523 13.7782 35.7111 12.7477C35.6676 12.4309 35.6607 11.3056 35.7003 10.9863C35.8094 10.1042 36.0203 9.38655 36.3856 8.65461C36.7231 7.97824 37.0806 7.47401 37.6038 6.93642C38.1981 6.32582 38.8209 5.87261 39.6113 5.47567ZM39.6689 8.00003C40.4395 7.41208 41.382 7.04076 42.3473 6.94483C42.6378 6.91597 43.3524 6.93515 43.6433 6.97962C44.7512 7.14897 45.6143 7.56187 46.3032 8.25207C46.6676 8.61719 46.8233 8.96369 46.8267 9.41727C46.8302 9.87963 46.6239 10.241 46.1874 10.5374C45.8686 10.7538 45.5064 10.8248 45.1662 10.7375C44.8999 10.6692 44.7031 10.5607 44.2799 10.2484C43.7713 9.87316 43.457 9.74122 42.9589 9.6938C42.5497 9.65485 42.1942 9.71625 41.8385 9.88724C41.33 10.1317 40.9118 10.5631 40.6591 11.1037C40.3348 11.7976 40.404 12.5017 40.8638 13.1876C41.2168 13.7142 41.7483 14.1016 42.2659 14.2096C42.5843 14.276 42.9992 14.2642 43.3218 14.1795C43.6373 14.0967 43.8497 13.9819 44.3021 13.6495C44.8082 13.2778 45.0243 13.181 45.381 13.1668C45.7303 13.1527 45.9816 13.2329 46.2664 13.4493C46.6568 13.7461 46.8295 14.072 46.8279 14.5092C46.8263 14.9668 46.6661 15.3097 46.2741 15.6943C45.9276 16.0344 45.5755 16.291 45.1933 16.482C44.5092 16.8239 43.8126 16.9986 43.0289 17.0249C42.2174 17.0521 41.5142 16.9197 40.7441 16.5946C39.1478 15.9207 38.0184 14.467 37.7555 12.7477C37.706 12.4243 37.6959 11.7153 37.7363 11.4002C37.852 10.4965 38.1874 9.67079 38.7329 8.9461C38.9364 8.67577 39.4082 8.19892 39.6689 8.00003ZM58.1135 8.37099C58.8989 7.71015 59.8775 7.3142 60.9282 7.23216C61.1624 7.21387 61.6075 7.22415 61.8643 7.25379C63.5626 7.44981 65.0656 8.52996 65.8111 10.0901C66.0454 10.5807 66.1734 11.0018 66.2648 11.583C66.2968 11.787 66.2996 11.9721 66.2996 13.9317V16.059L66.2394 16.2276C66.1021 16.6124 65.8523 16.8927 65.4967 17.0611C65.2867 17.1605 65.14 17.1928 64.898 17.1928C64.6487 17.1928 64.5005 17.1591 64.2934 17.0552C64.1312 16.9738 63.9231 16.7894 63.8288 16.6435C63.7955 16.592 63.7609 16.5499 63.7518 16.5499C63.7427 16.5499 63.6556 16.5983 63.5582 16.6576C63.1729 16.8919 62.6627 17.1092 62.2754 17.2041C61.87 17.3033 61.6507 17.3251 61.1635 17.3143C60.6849 17.3037 60.4693 17.2762 60.076 17.1751C59.1193 16.9295 58.2395 16.3898 57.5503 15.6258C56.9344 14.9432 56.4726 13.9981 56.3272 13.1231C56.1533 12.0765 56.2927 11.0619 56.7356 10.1488C57.0938 9.41065 57.4986 8.8884 58.1135 8.37099ZM69.6579 8.89689C70.5362 8.01994 71.652 7.48679 72.8565 7.36859C72.9568 7.35873 73.1857 7.3534 73.3653 7.35671C73.628 7.36158 73.7216 7.37098 73.8453 7.4049C74.2112 7.50527 74.495 7.73733 74.6529 8.06531C74.7704 8.30954 74.8017 8.47094 74.7899 8.77236C74.783 8.94908 74.7693 9.04622 74.7385 9.13813C74.5966 9.56118 74.2663 9.886 73.8282 10.0333C73.7057 10.0744 73.6174 10.0877 73.3674 10.1027C72.8592 10.133 72.6199 10.1916 72.2398 10.3789C71.9722 10.5108 71.7536 10.6714 71.5406 10.8927C71.1787 11.2687 70.9739 11.6734 70.8552 12.2472C70.8428 12.3074 70.8308 13.0543 70.8233 14.2397L70.8113 16.136L70.7566 16.2804C70.6559 16.5463 70.5479 16.7067 70.3635 16.864C69.8736 17.282 69.2017 17.3083 68.6569 16.9307C68.4119 16.7609 68.2363 16.5249 68.1374 16.2326L68.0852 16.0782V14.1338C68.0852 12.3606 68.0882 12.1691 68.1197 11.9584C68.3021 10.7386 68.794 9.75935 69.6579 8.89689ZM59.5658 10.7877C59.8978 10.3924 60.3916 10.1065 60.9034 10.0133C61.0911 9.97912 61.4899 9.97933 61.6865 10.0137C62.1078 10.0874 62.5269 10.2998 62.8371 10.5969C63.5549 11.2846 63.7612 12.339 63.3501 13.2193C62.9891 13.9925 62.3251 14.4684 61.4981 14.547C60.3369 14.6573 59.2794 13.8512 59.0494 12.6804C59.012 12.4896 59.0172 12.0114 59.0589 11.8141C59.1352 11.453 59.3182 11.0825 59.5658 10.7877ZM76.4504 14.9066C76.65 14.6459 76.9436 14.4506 77.2491 14.3753C77.4304 14.3306 77.6942 14.3263 77.8768 14.3651C78.3904 14.4742 78.8476 14.9298 78.9713 15.4558C79.0124 15.6307 79.0088 15.9337 78.9635 16.1115C78.7874 16.8016 78.0959 17.2827 77.4167 17.1874C76.8591 17.1092 76.4128 16.7391 76.242 16.2134C76.1693 15.9895 76.1576 15.6578 76.2145 15.4318C76.2613 15.2459 76.3617 15.0226 76.4504 14.9066ZM0.154997 4.57795C0.329796 4.22107 0.645774 3.96957 1.05635 3.86055C1.22111 3.81679 1.48555 3.81284 1.67076 3.85136C1.74526 3.86684 1.88647 3.92003 1.98756 3.97066C2.23928 4.09672 2.46189 4.31672 2.5781 4.55429C2.61138 4.6223 2.63717 4.67076 2.6572 4.72149C2.73125 4.90899 2.72672 5.12753 2.73144 6.47942C2.73437 7.32118 2.74081 8.02094 2.74576 8.03444C2.75229 8.05229 2.78737 8.04249 2.87421 7.99852C3.16909 7.84928 3.69575 7.67473 4.08039 7.59878C6.30809 7.15887 8.53336 8.27508 9.54393 10.3393C9.814 10.891 9.9676 11.4139 10.033 12.0045C10.0634 12.2782 10.0582 12.8845 10.0232 13.1695C9.81616 14.8536 8.75875 16.3417 7.23882 17.0879C6.73042 17.3375 6.30942 17.4699 5.77498 17.5482C4.1839 17.7813 2.61798 17.2594 1.47757 16.1159C0.802794 15.4393 0.305066 14.5366 0.107707 13.6313C0.0905006 13.5524 0.0760423 13.4918 0.0638947 13.4308C-0.0044075 13.0877 0.000339497 12.7301 0.000339497 9.01096C0.000339497 5.16713 -0.0105338 4.90597 0.0907905 4.7C0.108533 4.66394 0.129715 4.62956 0.154997 4.57795ZM23.4822 8.18017C24.0346 7.80558 24.7137 7.57732 25.4424 7.52126C26.2147 7.46187 27.0634 7.55795 27.7336 7.78059C28.2313 7.94592 28.5687 8.14053 28.8175 8.40576C29.2634 8.88098 29.3363 9.59641 28.9905 10.1038C28.8694 10.2815 28.7377 10.3932 28.5319 10.4927C28.3168 10.5967 28.1929 10.6269 27.9847 10.6263C27.7915 10.6257 27.6977 10.5994 27.1732 10.3992C26.5999 10.1802 26.4041 10.1437 25.911 10.1636C25.435 10.1828 25.2311 10.2389 25.0973 10.3874C24.9875 10.5093 24.9803 10.6811 25.0809 10.7777C25.1664 10.8599 25.4417 10.9769 25.7487 11.0615C26.5936 11.2945 27.0418 11.445 27.5047 11.651C28.2846 11.9982 28.7967 12.4059 29.1643 12.9721C29.4761 13.4524 29.5925 13.9093 29.5726 14.5746C29.5643 14.8516 29.5524 14.9627 29.5136 15.1283C29.2685 16.1731 28.4308 17.0322 27.305 17.3934C26.833 17.5448 26.4949 17.5947 25.9398 17.5949C25.2474 17.5951 24.6189 17.4929 24.0036 17.2798C22.9632 16.9194 22.2224 16.2494 21.9439 15.4169C21.8775 15.2182 21.8594 14.8532 21.9062 14.6538C21.9807 14.3361 22.2029 14.0566 22.4951 13.913C22.7182 13.8033 22.8641 13.7697 23.1078 13.7715C23.5506 13.7748 23.952 13.9428 24.3366 14.2858C24.8438 14.738 25.4365 14.9715 26.007 14.9437C26.53 14.9182 26.8725 14.7165 26.8249 14.462C26.7871 14.2602 26.3923 14.0463 25.4704 13.7282C25.084 13.5949 24.9379 13.5321 24.3366 13.2413C23.4476 12.8112 22.9828 12.4439 22.6194 11.884C22.3995 11.5452 22.2978 11.2412 22.2637 10.8202C22.2091 10.1463 22.3799 9.47425 22.7463 8.92117C22.8986 8.69135 23.2496 8.33792 23.4822 8.18017ZM11.7025 8.03746C11.9174 7.82077 12.0865 7.73119 12.4421 7.64574C12.4632 7.64066 12.5842 7.63919 12.7109 7.64248C12.8997 7.64737 12.969 7.65781 13.0949 7.70033C13.5593 7.85723 13.8979 8.21839 14.0161 8.68292C14.0413 8.78191 14.0453 9.06779 14.0453 10.7648C14.0453 11.9821 14.0529 12.806 14.0652 12.9261C14.1416 13.6728 14.5315 14.256 15.1781 14.5908C15.5798 14.7987 15.9699 14.8758 16.4099 14.8342C17.2391 14.7558 17.8399 14.2175 18.0596 13.3561C18.1306 13.0779 18.1349 12.9367 18.1356 10.9077C18.1363 8.79595 18.138 8.75288 18.2268 8.52949C18.4396 7.99428 18.9668 7.63426 19.5366 7.63496C19.7645 7.63524 19.9387 7.67669 20.151 7.78115C20.4877 7.94683 20.7468 8.27137 20.8428 8.64755C20.8793 8.79055 20.8806 8.86941 20.8803 10.9055C20.88 12.1587 20.8722 13.0895 20.8609 13.1981C20.7698 14.0752 20.4892 14.8594 20.0069 15.5853C19.6566 16.1125 19.2648 16.5039 18.7324 16.8583C17.9417 17.3847 17.0198 17.6386 16.0421 17.5993C14.7896 17.549 13.6789 17.0699 12.7808 16.1925C11.9889 15.419 11.5155 14.4825 11.3423 13.3473C11.3125 13.1521 11.3093 12.9158 11.3093 10.9457V8.7607L11.3542 8.61631C11.4303 8.37203 11.5222 8.21933 11.7025 8.03746ZM2.77314 12.1778C2.93506 11.2514 3.64796 10.5103 4.56999 10.3099C4.71534 10.2783 4.79773 10.2736 5.0884 10.28C5.45313 10.288 5.57543 10.3093 5.84748 10.4121C7.26382 10.9476 7.7598 12.7216 6.83689 13.9508C6.14136 14.8772 4.81743 15.1209 3.83693 14.503C3.29205 14.1596 2.90205 13.594 2.78207 12.9731C2.74221 12.7668 2.73785 12.3797 2.77314 12.1778Z" fill="#D1CFCD"/>
</svg>
