<svg width="106" height="40" viewBox="0 0 106 40" fill="none" xmlns="http://www.w3.org/2000/svg">
<path fill-rule="evenodd" clip-rule="evenodd" d="M57.709 0.0182855C57.392 0.0981191 57.3207 0.20298 56.8632 1.26316C56.4455 2.23087 56.3779 2.34232 56.1492 2.44096C56.0806 2.47058 55.8921 2.51999 55.7305 2.55073C55.4662 2.60096 55.0444 2.68769 54.3454 2.83555C54.0085 2.90684 53.6652 2.93463 53.466 2.90676C53.1778 2.86644 53.0866 2.80265 52.5387 2.25869C52.0029 1.72677 51.8001 1.57085 51.5378 1.48905C51.0456 1.33555 50.5678 1.50054 49.7438 2.10845C49.4888 2.29661 49.1468 2.53802 48.9839 2.64497C47.5592 3.58001 46.8146 4.10168 46.6743 4.26316C46.5553 4.39999 46.4377 4.64908 46.4088 4.82504C46.3601 5.12263 46.4381 5.42022 46.7429 6.0999C47.0094 6.69438 47.0391 6.79785 47.0391 7.13301C47.0391 7.40565 47.0355 7.42388 46.9518 7.585C46.8632 7.75536 46.7252 7.96942 46.3439 8.52771C46.2274 8.69818 46.0474 8.98293 45.9439 9.16049C45.8403 9.33806 45.7265 9.52188 45.691 9.56899C45.5273 9.78627 45.272 9.83142 44.0767 9.85436C43.2388 9.87042 43.1669 9.87543 43.0584 9.92538C42.8635 10.0151 42.7547 10.176 42.6381 10.547C42.5422 10.8523 42.5254 10.9303 42.1311 12.9009C41.6723 15.1936 41.6426 15.4076 41.7338 15.7605C41.8249 16.1126 42.0113 16.253 42.8831 16.6262C43.4803 16.8819 43.641 16.9749 43.8625 17.1933C44.2121 17.5379 44.2989 17.7891 44.5007 19.0396C44.6161 19.7546 44.622 19.8662 44.5576 20.1136C44.4743 20.4336 44.3018 20.6531 43.7105 21.1912C43.415 21.4601 43.2377 21.6838 43.1448 21.9048C43.0252 22.1891 43.0635 22.3892 43.3426 22.9396C43.7191 23.6822 44.2988 24.5873 45.1952 25.832C45.5813 26.3683 45.861 26.7228 46.057 26.9244C46.2352 27.1077 46.3641 27.1625 46.6174 27.1625C46.8986 27.1625 47.0986 27.0948 47.8669 26.7401C48.3003 26.5399 48.5221 26.4822 48.8061 26.4958C49.0098 26.5056 49.0502 26.5168 49.2407 26.6165C49.6376 26.8242 50.2003 27.1836 50.5552 27.4562C50.969 27.774 51.2511 28.0724 51.3834 28.3323C51.4775 28.5173 51.5135 28.9591 51.4944 29.6946C51.4754 30.4261 51.4811 30.4634 51.6355 30.6218C51.8527 30.8445 52.5187 31.0384 54.0713 31.3308C54.4114 31.3948 55.1192 31.5288 55.6443 31.6285C56.7769 31.8436 56.9884 31.8712 57.2347 31.8362C57.7105 31.7685 57.8961 31.5558 58.1917 30.7396C58.3681 30.2526 58.5739 29.8461 58.7059 29.7241C59.0789 29.3794 60.0743 29.0524 61.0813 28.9437C61.3038 28.9197 61.3889 28.9197 61.4614 28.9436C61.7494 29.0389 62.3465 29.65 62.9894 30.5072C63.2557 30.8623 63.683 31.426 63.9389 31.7598C64.3648 32.3154 64.8224 32.9177 66.9609 35.7373C68.8058 38.1699 69.3693 38.8924 69.5627 39.0735C70.7255 40.1626 72.4684 40.3071 73.79 39.4241C74.5565 38.9119 75.0655 38.158 75.272 37.2288C75.3279 36.9777 75.3504 36.2772 75.3119 35.9876C75.2781 35.7325 75.1887 35.4041 75.075 35.1174C74.9151 34.7143 74.8743 34.6569 73.0199 32.2247C72.7004 31.8056 72.202 31.149 71.9124 30.7654C71.6228 30.3819 71.3261 29.9925 71.253 29.9002C70.8778 29.4261 69.7583 27.9297 69.5137 27.5753C68.4603 26.049 67.9936 25.1163 68.0558 24.6616C68.0821 24.4692 68.3872 23.8974 68.7748 23.3141C69.3124 22.505 69.7172 22.1491 70.1886 22.0708C70.278 22.056 70.7047 22.0419 71.1368 22.0395C71.831 22.0357 71.9345 22.0298 72.0255 21.9888C72.3838 21.8277 72.5396 21.4019 72.8728 19.6724C72.9508 19.2675 73.1045 18.4714 73.2142 17.9032C73.4052 16.9148 73.4139 16.8539 73.4152 16.4956C73.4165 16.1305 73.4146 16.1173 73.3402 15.9699C73.1992 15.6907 72.984 15.551 72.3604 15.3341C71.8777 15.1661 71.5568 15.0149 71.3502 14.8579C71.216 14.756 71.1733 14.7026 71.0872 14.5303C70.7823 13.9194 70.5306 12.7644 70.5484 12.057C70.5566 11.7298 70.5625 11.6941 70.6307 11.5592C70.7474 11.3283 70.8978 11.1564 71.3251 10.7655C71.5448 10.5645 71.768 10.3395 71.8211 10.2654C72.0425 9.9564 72.103 9.69373 72.0251 9.38003C71.9397 9.03631 71.7203 8.67565 70.856 7.45831C70.4184 6.84188 70.1716 6.47089 69.9525 6.0999C69.5074 5.34625 69.2668 5.06103 68.9399 4.89968C68.5313 4.698 68.2477 4.72894 67.4489 5.06232C66.7084 5.37135 66.6254 5.39793 66.3971 5.39896C66.1032 5.40028 65.9559 5.33168 65.2251 4.85304C63.8444 3.94876 63.7541 3.87786 63.6972 3.65298C63.6818 3.59246 63.6636 3.22333 63.6566 2.83269C63.6497 2.44204 63.6312 2.02363 63.6155 1.90289C63.5672 1.53022 63.404 1.25838 63.1115 1.06372C62.7455 0.820161 62.3432 0.72093 60.9104 0.520894C60.6483 0.484322 60.0861 0.380262 59.6611 0.289684C58.4632 0.034402 57.936 -0.0388973 57.709 0.0182855ZM103.851 4.90209C103.092 4.96531 102.447 5.52278 102.253 6.28364C102.204 6.47843 102.202 6.59174 102.203 11.6118C102.203 17.3472 102.189 16.9219 102.394 17.335C102.719 17.9925 103.295 18.3537 104.019 18.3546C104.875 18.3555 105.599 17.7976 105.827 16.9605C105.871 16.8022 105.873 16.4955 105.873 11.6141C105.873 6.68456 105.871 6.42771 105.826 6.27003C105.739 5.961 105.52 5.58756 105.316 5.40059C104.898 5.01702 104.421 4.85464 103.851 4.90209ZM56.8404 6.33718C55.5762 6.43231 54.2345 6.79857 53.144 7.34622C52.0836 7.87876 51.248 8.4868 50.4507 9.30598C49.7488 10.0272 49.2691 10.7037 48.8163 11.6111C48.3263 12.5931 48.0434 13.5559 47.8969 14.7393C47.8439 15.1677 47.8532 16.6774 47.9114 17.1025C48.1009 18.485 48.5326 19.7316 49.2329 20.9184C49.9368 22.1113 50.9465 23.1882 52.0581 23.9318C53.4603 24.8698 55.0307 25.408 56.7427 25.5374C57.2458 25.5754 58.2839 25.5553 58.7096 25.4993C60.9531 25.204 63.1674 24.0099 64.6777 22.281C66.0877 20.667 66.8712 18.7852 67.0436 16.5989C67.08 16.1384 67.0598 15.2335 67.0033 14.7909C66.8147 13.3123 66.2545 11.8076 65.4358 10.581C64.4682 9.13123 63.2481 8.04491 61.7341 7.28522C60.7023 6.76747 59.5174 6.44354 58.2986 6.34601C57.994 6.32163 57.1175 6.31634 56.8404 6.33718ZM56.8147 9.31727C55.5197 9.44597 54.2552 9.94413 53.2213 10.7329C52.8715 10.9998 52.2386 11.6395 51.9656 12.0022C51.2336 12.9745 50.7838 14.0822 50.6285 15.2946C50.5744 15.7173 50.5879 16.6686 50.6543 17.1025C51.007 19.4091 52.5222 21.3594 54.6638 22.2635C55.6969 22.6996 56.6404 22.8773 57.7291 22.8408C58.7806 22.8055 59.7151 22.5711 60.6329 22.1125C61.1457 21.8562 61.618 21.512 62.083 21.0557C62.6088 20.5396 62.8237 20.0797 62.8259 19.4658C62.8281 18.8792 62.5964 18.4419 62.0726 18.0438C61.6906 17.7535 61.3534 17.6459 60.8847 17.6647C60.4062 17.6838 60.1163 17.8136 59.4373 18.3124C58.8304 18.7583 58.5454 18.9123 58.1221 19.0234C57.6893 19.137 57.1326 19.1528 56.7054 19.0637C56.011 18.9189 55.298 18.3992 54.8244 17.6926C54.2075 16.7724 54.1147 15.8278 54.5498 14.8969C54.8888 14.1715 55.4498 13.5929 56.1321 13.2648C56.6092 13.0354 57.0863 12.9531 57.6352 13.0053C58.3034 13.0689 58.7251 13.246 59.4075 13.7494C59.9753 14.1683 60.2393 14.314 60.5966 14.4056C61.053 14.5227 61.5389 14.4274 61.9665 14.1371C62.5522 13.7395 62.829 13.2546 62.8243 12.6343C62.8197 12.0258 62.6109 11.5609 62.1219 11.0711C61.1978 10.1451 60.0398 9.59115 58.5534 9.36394C58.1631 9.30428 57.2044 9.27855 56.8147 9.31727ZM81.743 9.70275C80.3334 9.81283 79.0205 10.344 77.9668 11.2306C77.1418 11.9248 76.5988 12.6254 76.1183 13.6158C75.5239 14.8407 75.337 16.202 75.5703 17.6062C75.7653 18.7801 76.3849 20.048 77.2111 20.9638C78.1358 21.9887 79.3162 22.7128 80.5997 23.0424C81.1274 23.1779 81.4166 23.2149 82.0588 23.2291C82.7124 23.2435 83.0065 23.2144 83.5504 23.0812C84.0701 22.954 84.7545 22.6624 85.2715 22.348C85.4022 22.2685 85.519 22.2035 85.5312 22.2035C85.5434 22.2035 85.5899 22.26 85.6345 22.3291C85.761 22.5249 86.0402 22.7722 86.2578 22.8814C86.5357 23.0208 86.7345 23.0661 87.0689 23.0661C87.3937 23.0661 87.5904 23.0228 87.8722 22.8894C88.3493 22.6635 88.6844 22.2874 88.8686 21.7712L88.9494 21.5449V18.6909C88.9494 16.0619 88.9457 15.8136 88.9027 15.54C88.7801 14.7601 88.6084 14.1952 88.294 13.5371C87.2938 11.4439 85.2774 9.99476 82.999 9.73178C82.6544 9.692 82.0573 9.67821 81.743 9.70275ZM97.7461 9.88579C96.1303 10.0444 94.6333 10.7596 93.4549 11.9362C92.2959 13.0933 91.6359 14.407 91.3913 16.0436C91.349 16.3263 91.345 16.5831 91.345 18.9621V21.5707L91.415 21.7779C91.5477 22.17 91.7833 22.4866 92.112 22.7144C92.8428 23.221 93.7443 23.1858 94.4016 22.625C94.649 22.4139 94.7939 22.1987 94.929 21.8419L95.0023 21.6482L95.0185 19.1042C95.0285 17.5138 95.0446 16.5118 95.0613 16.431C95.2205 15.6612 95.4953 15.1182 95.9807 14.6138C96.2665 14.3169 96.5598 14.1014 96.9189 13.9245C97.4288 13.6732 97.7498 13.5946 98.4316 13.5539C98.767 13.5338 98.8855 13.516 99.0498 13.4608C99.6376 13.2632 100.081 12.8274 100.271 12.2598C100.312 12.1365 100.331 12.0062 100.34 11.7691C100.356 11.3647 100.314 11.1482 100.156 10.8205C99.9444 10.3805 99.5637 10.0692 99.0727 9.9345C98.9069 9.88899 98.7812 9.87639 98.4288 9.86985C98.1879 9.86541 97.8807 9.87257 97.7461 9.88579ZM81.7097 13.434C81.0231 13.559 80.3606 13.9426 79.9153 14.4729C79.5831 14.8684 79.3375 15.3655 79.2352 15.8499C79.1792 16.1146 79.1722 16.7562 79.2225 17.0121C79.531 18.5829 80.9498 19.6644 82.5076 19.5165C83.6172 19.411 84.5079 18.7725 84.9923 17.7352C85.5439 16.5542 85.2671 15.1396 84.304 14.217C83.8879 13.8184 83.3256 13.5334 82.7604 13.4346C82.4966 13.3884 81.9615 13.3881 81.7097 13.434ZM103.639 19.2861C103.229 19.3871 102.836 19.6492 102.568 19.9989C102.449 20.1545 102.314 20.4541 102.251 20.7035C102.175 21.0066 102.191 21.4517 102.288 21.7521C102.517 22.4574 103.116 22.9539 103.864 23.0588C104.775 23.1866 105.703 22.5413 105.939 21.6153C106 21.3768 106.005 20.9704 105.95 20.7357C105.784 20.03 105.171 19.4187 104.481 19.2724C104.237 19.2203 103.883 19.2261 103.639 19.2861Z" fill="#3B563C"/>
<path fill-rule="evenodd" clip-rule="evenodd" d="M1.4177 5.17965C0.866867 5.32592 0.442947 5.66333 0.208435 6.14213C-0.0192 6.60687 0.000943754 6.0296 0.000943754 12.0895C0.000943754 17.9666 -0.00789167 17.587 0.144989 18.2882C0.409769 19.5027 1.07753 20.7139 1.98281 21.6216C3.51281 23.1557 5.61365 23.8559 7.74827 23.5432C8.46528 23.4381 9.0301 23.2605 9.71218 22.9257C11.7513 21.9246 13.17 19.9281 13.4477 17.6687C13.4947 17.2863 13.5016 16.4728 13.4609 16.1057C13.3731 15.3134 13.1671 14.6118 12.8047 13.8716C11.4489 11.1022 8.4635 9.60473 5.47478 10.1949C4.95875 10.2968 4.25217 10.531 3.85656 10.7312C3.74005 10.7902 3.69299 10.8033 3.68423 10.7794C3.67759 10.7613 3.66896 9.82248 3.66502 8.69316C3.65698 6.38876 3.66896 6.53892 3.4593 6.11038C3.30338 5.79167 3.00473 5.49651 2.66703 5.32739C2.5314 5.25946 2.34194 5.1881 2.242 5.16733C1.99352 5.11565 1.63874 5.12095 1.4177 5.17965ZM34.1343 10.0909C33.1567 10.1661 32.2457 10.4724 31.5045 10.9749C31.1924 11.1866 30.7215 11.6607 30.5173 11.9691C30.0257 12.7111 29.7965 13.6127 29.8698 14.5168C29.9155 15.0816 30.0519 15.4895 30.3469 15.944C30.8345 16.6952 31.4581 17.188 32.6508 17.765C33.4574 18.1552 33.6535 18.2394 34.1719 18.4183C35.4087 18.845 35.9384 19.132 35.9891 19.4027C36.053 19.7441 35.5935 20.0148 34.8918 20.049C34.1265 20.0862 33.3313 19.773 32.6508 19.1663C32.1348 18.7061 31.5962 18.4807 31.0022 18.4763C30.6752 18.4738 30.4795 18.519 30.1801 18.6662C29.7881 18.8588 29.49 19.2338 29.3901 19.66C29.3273 19.9275 29.3515 20.4172 29.4407 20.6839C29.8143 21.8007 30.8082 22.6996 32.2041 23.183C33.0295 23.4689 33.8727 23.6062 34.8017 23.6058C35.5464 23.6056 36 23.5386 36.6332 23.3354C38.1436 22.8508 39.2675 21.6983 39.5963 20.2966C39.6484 20.0744 39.6643 19.9254 39.6754 19.5537C39.7021 18.6612 39.546 18.0482 39.1276 17.4038C38.6345 16.6442 37.9475 16.0973 36.9011 15.6314C36.2801 15.355 35.6788 15.1531 34.5452 14.8406C34.1333 14.727 33.7641 14.5701 33.6493 14.4598C33.5143 14.3302 33.524 14.0997 33.6714 13.9362C33.8509 13.7369 34.1244 13.6617 34.7631 13.6359C35.4245 13.6092 35.6872 13.6582 36.4564 13.9519C37.1601 14.2206 37.286 14.2558 37.5451 14.2566C37.8245 14.2575 37.9906 14.2169 38.2792 14.0774C38.5554 13.9439 38.732 13.7941 38.8945 13.5557C39.3584 12.875 39.2606 11.9151 38.6624 11.2776C38.3286 10.9217 37.8759 10.6606 37.2082 10.4388C36.3091 10.1401 35.1704 10.0112 34.1343 10.0909ZM16.6929 10.2579C16.2159 10.3726 15.989 10.4927 15.7007 10.7835C15.4588 11.0275 15.3355 11.2323 15.2335 11.56L15.1731 11.7538V14.6852C15.1731 17.3282 15.1775 17.6453 15.2175 17.9072C15.4498 19.4302 16.085 20.6866 17.1473 21.7244C18.3522 22.9014 19.8424 23.5442 21.5228 23.6118C22.8344 23.6645 24.0713 23.3238 25.1322 22.6176C25.8464 22.1421 26.372 21.6171 26.842 20.9097C27.4891 19.9358 27.8655 18.8837 27.9878 17.7071C28.0029 17.5613 28.0134 16.3126 28.0137 14.6312C28.0141 11.8996 28.0124 11.7938 27.9634 11.602C27.8347 11.0973 27.487 10.6619 27.0353 10.4396C26.7505 10.2994 26.5167 10.2438 26.211 10.2434C25.4465 10.2425 24.7393 10.7255 24.4538 11.4436C24.3346 11.7433 24.3324 11.801 24.3315 14.6342C24.3305 17.3563 24.3247 17.5458 24.2295 17.919C23.9347 19.0747 23.1287 19.7969 22.0162 19.9021C21.4258 19.9579 20.9025 19.8545 20.3636 19.5755C19.4961 19.1263 18.973 18.3439 18.8705 17.3421C18.854 17.181 18.8438 16.0756 18.8438 14.4425C18.8438 12.1658 18.8385 11.7822 18.8047 11.6494C18.6461 11.0262 18.1918 10.5417 17.5688 10.3312C17.3999 10.2741 17.3069 10.2601 17.0536 10.2535C16.8836 10.2491 16.7213 10.2511 16.6929 10.2579ZM6.13165 13.8322C4.89464 14.101 3.93819 15.0953 3.72097 16.3382C3.67362 16.609 3.67947 17.1284 3.73294 17.4052C3.89391 18.2382 4.41714 18.997 5.14816 19.4577C6.46361 20.2867 8.23981 19.9598 9.17294 18.7169C10.4111 17.0677 9.74572 14.6878 7.84554 13.9694C7.48055 13.8314 7.31647 13.8028 6.82715 13.792C6.43718 13.7834 6.32664 13.7898 6.13165 13.8322Z" fill="#474747"/>
</svg>
