<svg width="29" height="30" viewBox="0 0 29 30" fill="none" xmlns="http://www.w3.org/2000/svg">
<path fill-rule="evenodd" clip-rule="evenodd" d="M12.7596 3.04785C11.1475 3.04799 9.55884 3.43364 8.12613 4.17262C6.69342 4.91161 5.45821 5.9825 4.52354 7.29595C3.58887 8.6094 2.98186 10.1273 2.75315 11.7231C2.52443 13.3188 2.68064 14.9462 3.20875 16.4693C3.73686 17.9924 4.62156 19.3671 5.78902 20.4788C6.95648 21.5904 8.37286 22.4068 9.91999 22.8597C11.4671 23.3127 13.1001 23.389 14.6828 23.0825C16.2654 22.776 17.7518 22.0954 19.018 21.0976L23.3615 25.4411C23.5858 25.6578 23.8863 25.7776 24.1981 25.7749C24.51 25.7722 24.8083 25.6471 25.0288 25.4266C25.2493 25.2061 25.3744 24.9078 25.3771 24.5959C25.3798 24.2841 25.2599 23.9837 25.0433 23.7593L20.6997 19.4158C21.8748 17.9251 22.6065 16.1337 22.811 14.2465C23.0155 12.3594 22.6845 10.4528 21.8561 8.74499C21.0276 7.03716 19.735 5.59707 18.1263 4.58954C16.5176 3.582 14.6577 3.04772 12.7596 3.04785ZM5.02874 13.1574C5.02874 11.1071 5.84323 9.14069 7.29304 7.69088C8.74286 6.24107 10.7092 5.42657 12.7596 5.42657C14.8099 5.42657 16.7763 6.24107 18.2261 7.69088C19.6759 9.14069 20.4904 11.1071 20.4904 13.1574C20.4904 15.2077 19.6759 17.1741 18.2261 18.6239C16.7763 20.0737 14.8099 20.8882 12.7596 20.8882C10.7092 20.8882 8.74286 20.0737 7.29304 18.6239C5.84323 17.1741 5.02874 15.2077 5.02874 13.1574Z" fill="#F8F7F4"/>
</svg>
