<svg width="24" height="19" viewBox="0 0 24 19" fill="none" xmlns="http://www.w3.org/2000/svg">
<path d="M18 13.9519C17.34 13.9519 16.8 13.4287 16.8 12.7893H7.2C7.2 13.4287 6.66 13.9519 6 13.9519C5.34 13.9519 4.8 13.4287 4.8 12.7893H0V16.2772C0 17.5562 1.08 18.6026 2.4 18.6026H21.6C22.92 18.6026 24 17.5562 24 16.2772V12.7893H19.2C19.2 13.4287 18.66 13.9519 18 13.9519ZM21.6 4.65064H18V2.32532C18 1.04639 16.92 0 15.6 0H8.4C7.08 0 6 1.04639 6 2.32532V4.65064H2.4C1.08 4.65064 0 5.69704 0 6.97596V11.6266H4.8V10.4639C4.8 9.82448 5.34 9.30128 6 9.30128C6.66 9.30128 7.2 9.82448 7.2 10.4639V11.6266H16.8V10.4639C16.8 9.82448 17.34 9.30128 18 9.30128C18.66 9.30128 19.2 9.82448 19.2 10.4639V11.6266H24V6.97596C24 5.69704 22.92 4.65064 21.6 4.65064ZM15.6 4.65064H8.4V2.32532H15.6V4.65064Z" fill="#3B563C"/>
</svg>
