<svg width="82" height="16" viewBox="0 0 82 16" fill="none" xmlns="http://www.w3.org/2000/svg">
<path fill-rule="evenodd" clip-rule="evenodd" d="M49.0045 1.70891C49.0045 1.47122 49.0496 1.24992 49.1398 1.04502C49.2299 0.831914 49.3529 0.651598 49.5086 0.504066C49.6644 0.348339 49.8447 0.225396 50.0497 0.135238C50.2546 0.0450792 50.4759 0 50.7136 0C50.9432 0 51.1604 0.0450792 51.3653 0.135238C51.5784 0.225396 51.7629 0.348339 51.9186 0.504066C52.0826 0.651598 52.2096 0.831914 52.2998 1.04502C52.39 1.24992 52.4351 1.47122 52.4351 1.70891C52.4351 1.9466 52.39 2.1679 52.2998 2.3728C52.2096 2.5777 52.0826 2.75802 51.9186 2.91375C51.7629 3.06948 51.5784 3.19242 51.3653 3.28258C51.1604 3.37274 50.9432 3.41781 50.7136 3.41781C50.4759 3.41781 50.2546 3.37274 50.0497 3.28258C49.8447 3.19242 49.6644 3.06948 49.5086 2.91375C49.3529 2.75802 49.2299 2.5777 49.1398 2.3728C49.0496 2.1679 49.0045 1.9466 49.0045 1.70891ZM52.3244 14.372C52.3244 14.5933 52.2834 14.8023 52.2014 14.999C52.1195 15.1876 52.0047 15.3556 51.8572 15.5031C51.7178 15.6424 51.5498 15.7531 51.353 15.8351C51.1645 15.917 50.9596 15.958 50.7382 15.958C50.5169 15.958 50.3079 15.917 50.1111 15.8351C49.9226 15.7531 49.7546 15.6424 49.607 15.5031C49.4595 15.3556 49.3406 15.1876 49.2504 14.999C49.1685 14.8023 49.1275 14.5933 49.1275 14.372V6.11027C49.1275 5.88897 49.1685 5.68406 49.2504 5.49555C49.3406 5.29884 49.4595 5.13082 49.607 4.99149C49.7546 4.84395 49.9267 4.72921 50.1234 4.64725C50.3284 4.56528 50.5415 4.5243 50.7628 4.5243C50.9841 4.5243 51.1891 4.56528 51.3776 4.64725C51.5662 4.72921 51.7301 4.84395 51.8694 4.99149C52.017 5.13082 52.1277 5.29884 52.2014 5.49555C52.2834 5.68406 52.3244 5.88897 52.3244 6.11027V14.372ZM57.8487 4.69064C57.912 4.59442 58.0812 4.45797 58.2248 4.38743C58.6052 4.20052 64.6069 4.19101 64.9674 4.37687C65.1233 4.45724 65.3593 4.76606 65.6662 5.29113C65.9211 5.72721 66.5611 6.7971 67.0883 7.6687C67.6156 8.54029 68.1106 9.37832 68.1883 9.53103C68.472 10.0881 68.3722 10.3513 66.9691 12.7479C65.2514 15.6819 65.2288 15.7159 64.9149 15.8466C64.7042 15.9344 63.9872 15.958 61.5384 15.958C58.8282 15.958 58.4009 15.9413 58.2074 15.8273C58.0628 15.7422 57.5972 15.0548 56.8727 13.8566C56.2606 12.8446 55.5692 11.7057 55.3361 11.3257C54.8211 10.4862 54.7466 10.0724 55.0161 9.54614C55.1923 9.20189 57.6302 5.02311 57.8487 4.69064ZM59.0647 10.1067C59.0709 9.16093 59.59 8.37036 60.5034 7.91542C60.9254 7.70527 61.0906 7.66878 61.6178 7.66951C62.6585 7.67081 63.4451 8.15191 63.9045 9.06829C64.1166 9.49145 64.1529 9.65496 64.1529 10.188C64.1529 10.721 64.1166 10.8845 63.9045 11.3077C63.4486 12.2169 62.604 12.7344 61.576 12.7344C60.8278 12.7344 60.2407 12.4669 59.7185 11.8881C59.2707 11.3916 59.0601 10.8179 59.0647 10.1067ZM14.2319 14.9701C14.309 14.7927 14.3476 14.5999 14.3476 14.3916V9.41602V9.35816C14.3553 9.16531 14.4016 8.98403 14.4865 8.81432C14.5713 8.64461 14.6794 8.49804 14.8105 8.37462C14.9494 8.25119 15.1075 8.15477 15.285 8.08534C15.4624 8.0082 15.6514 7.96963 15.852 7.96963C16.0603 7.96963 16.2532 8.00434 16.4307 8.07377C16.6158 8.1432 16.774 8.24348 16.9051 8.37462C17.044 8.49804 17.152 8.64847 17.2292 8.82589C17.3063 9.00332 17.3488 9.20002 17.3565 9.41602V14.3916C17.3565 14.5999 17.3989 14.7927 17.4838 14.9701C17.5686 15.1476 17.6805 15.3019 17.8194 15.433C17.9582 15.5641 18.1203 15.6683 18.3054 15.7454C18.4906 15.8226 18.6873 15.8611 18.8956 15.8611C19.0962 15.8611 19.2852 15.8226 19.4627 15.7454C19.6401 15.6683 19.7944 15.5641 19.9256 15.433C20.0645 15.3019 20.1725 15.1476 20.2496 14.9701C20.3268 14.7927 20.3653 14.5999 20.3653 14.3916V9.41602C20.3653 9.35431 20.3615 9.30802 20.3538 9.27717C20.3306 8.68318 20.1956 8.12391 19.9487 7.59935C19.7096 7.0748 19.3894 6.61967 18.9882 6.23396C18.5947 5.84055 18.128 5.53198 17.5879 5.30828C17.0556 5.07685 16.4847 4.96114 15.8752 4.96114C15.2966 4.96114 14.7488 5.06528 14.2319 5.27356C13.715 5.48184 13.2482 5.76726 12.8316 6.12982C12.4304 5.76726 11.9675 5.48184 11.4429 5.27356C10.926 5.06528 10.3744 4.96114 9.78802 4.96114C9.17853 4.96114 8.60376 5.07685 8.06371 5.30828C7.52365 5.5397 7.04918 5.85598 6.64028 6.25711C6.2391 6.65824 5.91892 7.1288 5.67976 7.66878C5.44831 8.20105 5.33258 8.77189 5.33258 9.38131V14.3916C5.33258 14.5999 5.37501 14.7927 5.45988 14.9701C5.54474 15.1476 5.65661 15.3019 5.79548 15.433C5.93435 15.5641 6.09637 15.6683 6.28153 15.7454C6.46669 15.8226 6.66343 15.8611 6.87173 15.8611C7.07232 15.8611 7.26134 15.8226 7.43879 15.7454C7.61623 15.6683 7.77053 15.5641 7.90169 15.433C8.04056 15.3019 8.14857 15.1476 8.22572 14.9701C8.30287 14.7927 8.34145 14.5999 8.34145 14.3916V9.41602V9.35816C8.34145 9.1576 8.38002 8.97246 8.45717 8.80275C8.54204 8.63304 8.65391 8.48647 8.79278 8.36305C8.93165 8.23962 9.08981 8.1432 9.26725 8.07377C9.45241 8.00434 9.64529 7.96963 9.84588 7.96963C10.2702 7.96963 10.6212 8.10463 10.899 8.37462C11.1767 8.6369 11.3233 8.98403 11.3387 9.41602V14.3916C11.3387 14.5999 11.3812 14.7927 11.466 14.9701C11.5509 15.1476 11.6628 15.3019 11.8016 15.433C11.9405 15.5641 12.1025 15.6683 12.2877 15.7454C12.4729 15.8226 12.6696 15.8611 12.8779 15.8611C13.0785 15.8611 13.2675 15.8226 13.4449 15.7454C13.6224 15.6683 13.7767 15.5641 13.9078 15.433C14.0467 15.3019 14.1547 15.1476 14.2319 14.9701ZM24.9479 11.4641C24.8167 11.1555 24.7512 10.8277 24.7512 10.4806C24.7512 10.1334 24.8167 9.80943 24.9479 9.50859C25.0868 9.20002 25.2681 8.93389 25.4918 8.71018C25.7233 8.47876 25.9894 8.29748 26.2903 8.16634C26.5989 8.0352 26.9229 7.96963 27.2624 7.96963C27.6096 7.96963 27.9336 8.0352 28.2345 8.16634C28.5431 8.29748 28.8093 8.47876 29.033 8.71018C29.2567 8.93389 29.4342 9.20002 29.5653 9.50859C29.6965 9.80943 29.7621 10.1334 29.7621 10.4806C29.7621 10.8277 29.6965 11.1555 29.5653 11.4641C29.4342 11.765 29.2567 12.0311 29.033 12.2625C28.8093 12.4862 28.5431 12.6636 28.2345 12.7948C27.9336 12.9259 27.6096 12.9915 27.2624 12.9915C26.9229 12.9915 26.5989 12.9259 26.2903 12.7948C25.9894 12.6636 25.7233 12.4862 25.4918 12.2625C25.2681 12.0311 25.0868 11.765 24.9479 11.4641ZM22.182 8.33991C21.8889 9.00331 21.7423 9.71687 21.7423 10.4806C21.7423 11.2365 21.8889 11.9501 22.182 12.6212C22.4752 13.2923 22.8725 13.8786 23.374 14.38C23.8755 14.8814 24.458 15.2787 25.1215 15.5718C25.7927 15.8573 26.5063 16 27.2624 16C28.0262 16 28.7398 15.8573 29.4033 15.5718C30.0745 15.2787 30.657 14.8814 31.1508 14.38C31.6523 13.8786 32.0457 13.2923 32.3312 12.6212C32.6244 11.9501 32.7709 11.2365 32.7709 10.4806C32.7709 9.71687 32.6244 9.00331 32.3312 8.33991C32.0457 7.66878 31.6523 7.08251 31.1508 6.5811C30.657 6.07968 30.0745 5.68627 29.4033 5.40085C28.7398 5.10771 28.0262 4.96114 27.2624 4.96114C26.5063 4.96114 25.7927 5.10771 25.1215 5.40085C24.458 5.68627 23.8755 6.07968 23.374 6.5811C22.8725 7.08251 22.4752 7.66878 22.182 8.33991ZM81.2095 14.7466C81.2915 14.5581 81.3325 14.3532 81.3325 14.1319V9.82893V9.81664V9.75516C81.3325 8.96833 81.189 8.23067 80.9021 7.54219C80.6152 6.85371 80.2176 6.25539 79.7094 5.74722C79.2094 5.23086 78.6192 4.82515 77.9388 4.53009C77.2584 4.23502 76.5248 4.08749 75.7379 4.08749C74.9509 4.08749 74.2173 4.23502 73.5369 4.53009C72.8647 4.82515 72.2786 5.23086 71.7786 5.74722C71.2786 6.25539 70.8851 6.85371 70.5982 7.54219C70.3113 8.23067 70.1678 8.96833 70.1678 9.75516V9.76746V9.82893V14.1319C70.1678 14.3532 70.2129 14.5581 70.3031 14.7466C70.3933 14.9352 70.5121 15.1032 70.6597 15.2507C70.8072 15.3901 70.9794 15.5007 71.1761 15.5827C71.3728 15.6564 71.5819 15.6933 71.8032 15.6933C72.0245 15.6933 72.2294 15.6564 72.418 15.5827C72.6065 15.5007 72.7705 15.3901 72.9098 15.2507C73.0492 15.1032 73.1598 14.9352 73.2418 14.7466C73.3238 14.5581 73.3648 14.3532 73.3648 14.1319V9.75516C73.3648 9.40273 73.4221 9.07898 73.5369 8.78392C73.6517 8.48066 73.8115 8.21838 74.0164 7.99708C74.2296 7.77578 74.4796 7.60366 74.7665 7.48072C75.0616 7.34958 75.3854 7.28401 75.7379 7.28401C76.0739 7.28401 76.3854 7.34548 76.6723 7.46842C76.9592 7.59137 77.2093 7.76349 77.4224 7.98479C77.6355 8.19789 77.8036 8.45197 77.9265 8.74703C78.0577 9.0339 78.1314 9.34126 78.1478 9.6691C78.1396 9.69369 78.1355 9.72238 78.1355 9.75516V9.82893V14.1319C78.1355 14.3532 78.1765 14.5581 78.2585 14.7466C78.3487 14.9352 78.4675 15.1032 78.6151 15.2507C78.7708 15.3901 78.9471 15.5007 79.1438 15.5827C79.3405 15.6564 79.5496 15.6933 79.7709 15.6933C79.9922 15.6933 80.1971 15.6564 80.3857 15.5827C80.5742 15.5007 80.7382 15.3901 80.8775 15.2507C81.0169 15.1032 81.1275 14.9352 81.2095 14.7466ZM43.3171 3.61489C43.0581 3.72847 40.2049 5.53552 39.9256 5.76283L39.7493 5.90633L40.0661 6.40709C40.2403 6.6825 40.3647 6.93746 40.3425 6.97365C40.3026 7.03842 39.1582 7.79735 38.8522 7.96192C38.7112 8.03782 38.6641 7.99435 38.3951 7.54012C38.2301 7.26158 38.0576 7.0331 38.012 7.03231C37.9662 7.03161 37.2648 7.45819 36.4532 7.98033C35.6415 8.50255 34.8468 9.01349 34.6871 9.11587C34.2857 9.37326 34.1303 9.633 34.1892 9.94843C34.2472 10.2589 35.8737 12.7805 36.063 12.8535C36.3697 12.9718 36.6066 12.8649 37.9674 11.9947C38.7508 11.4936 39.4192 11.1147 39.4525 11.1527C39.4859 11.1906 40.066 12.1028 40.7418 13.1798C41.4176 14.2568 42.063 15.2394 42.1761 15.3633C42.5019 15.7202 43.0855 15.9591 43.6288 15.958C45.0216 15.9552 46.0128 14.6152 45.5834 13.3157C45.5117 13.0987 44.8727 12.0113 44.1633 10.8992L42.8737 8.87728L43.0481 8.73542C43.1439 8.65733 43.7124 8.28636 44.3112 7.91101C45.5544 7.13171 45.8094 6.88537 45.739 6.53179C45.6761 6.21558 44.2509 3.94348 43.9626 3.69965C43.7027 3.47993 43.6426 3.47202 43.3171 3.61489ZM1.55555 16C2.41466 16 3.11111 15.3036 3.11111 14.4445C3.11111 13.5854 2.41466 12.8889 1.55555 12.8889C0.696445 12.8889 0 13.5854 0 14.4445C0 15.3036 0.696445 16 1.55555 16Z" fill="#474747" fill-opacity="0.19"/>
</svg>
