<svg width="19" height="16" viewBox="0 0 19 16" fill="none" xmlns="http://www.w3.org/2000/svg">
<path d="M6.36158 5.89482L8.81032 4.21058H11.8265L10.8833 1.68423H8.63757V0H12.0926L13.0358 2.52635H16.4113V5.0527H13.979L15.2366 8.42285C16.1909 8.45243 17.1006 8.82338 17.7923 9.46496C18.4839 10.1065 18.9092 10.9739 18.9871 11.9016C19.0649 12.8293 18.7898 13.7525 18.2142 14.4951C17.6386 15.2377 16.8028 15.7479 15.8662 15.9282C14.9295 16.1085 13.9576 15.9465 13.1356 15.4729C12.3137 14.9994 11.6993 14.2474 11.4096 13.3605C11.1198 12.4736 11.175 11.5138 11.5646 10.664C11.9542 9.81422 12.651 9.13398 13.5221 8.75296L12.4545 5.89482H11.6365L10.2701 10.838L7.74358 11.7383C7.83477 12.4475 7.71834 13.1675 7.40773 13.815C7.09712 14.4625 6.60501 15.0111 5.98821 15.3976C5.37141 15.784 4.65508 15.9925 3.92193 15.9989C3.18878 16.0054 2.46871 15.8095 1.84486 15.434C1.22101 15.0585 0.718833 14.5186 0.396301 13.8766C0.0737678 13.2347 -0.055962 12.5169 0.0220902 11.8061C0.100142 11.0954 0.382793 10.4207 0.837407 9.85984C1.29202 9.29903 1.90006 8.87501 2.59131 8.63675V7.57905H0.863807V5.89482H6.36158ZM3.88693 14.316C4.45964 14.316 5.00888 14.0942 5.41385 13.6994C5.81881 13.3045 6.04631 12.7691 6.04631 12.2107C6.04631 11.6523 5.81881 11.1168 5.41385 10.722C5.00888 10.3272 4.45964 10.1054 3.88693 10.1054C3.31423 10.1054 2.76499 10.3272 2.36002 10.722C1.95506 11.1168 1.72756 11.6523 1.72756 12.2107C1.72756 12.7691 1.95506 13.3045 2.36002 13.6994C2.76499 14.0942 3.31423 14.316 3.88693 14.316ZM15.1157 14.316C15.6884 14.316 16.2376 14.0942 16.6426 13.6994C17.0476 13.3045 17.2751 12.7691 17.2751 12.2107C17.2751 11.6523 17.0476 11.1168 16.6426 10.722C16.2376 10.3272 15.6884 10.1054 15.1157 10.1054C14.543 10.1054 13.9937 10.3272 13.5888 10.722C13.1838 11.1168 12.9563 11.6523 12.9563 12.2107C12.9563 12.7691 13.1838 13.3045 13.5888 13.6994C13.9937 14.0942 14.543 14.316 15.1157 14.316Z" fill="#3B563C"/>
</svg>
