<svg width="15" height="18" viewBox="0 0 15 18" fill="none" xmlns="http://www.w3.org/2000/svg">
<path d="M12.75 8.625H2.25V4.25H12.75M11.4375 13.875C11.0894 13.875 10.7556 13.7367 10.5094 13.4906C10.2633 13.2444 10.125 12.9106 10.125 12.5625C10.125 12.2144 10.2633 11.8806 10.5094 11.6344C10.7556 11.3883 11.0894 11.25 11.4375 11.25C11.7856 11.25 12.1194 11.3883 12.3656 11.6344C12.6117 11.8806 12.75 12.2144 12.75 12.5625C12.75 12.9106 12.6117 13.2444 12.3656 13.4906C12.1194 13.7367 11.7856 13.875 11.4375 13.875ZM3.5625 13.875C3.2144 13.875 2.88056 13.7367 2.63442 13.4906C2.38828 13.2444 2.25 12.9106 2.25 12.5625C2.25 12.2144 2.38828 11.8806 2.63442 11.6344C2.88056 11.3883 3.2144 11.25 3.5625 11.25C3.9106 11.25 4.24444 11.3883 4.49058 11.6344C4.73672 11.8806 4.875 12.2144 4.875 12.5625C4.875 12.9106 4.73672 13.2444 4.49058 13.4906C4.24444 13.7367 3.9106 13.875 3.5625 13.875ZM0.5 13C0.5 13.77 0.84125 14.4612 1.375 14.9425V16.5C1.375 16.7321 1.46719 16.9546 1.63128 17.1187C1.79538 17.2828 2.01794 17.375 2.25 17.375H3.125C3.35706 17.375 3.57962 17.2828 3.74372 17.1187C3.90781 16.9546 4 16.7321 4 16.5V15.625H11V16.5C11 16.7321 11.0922 16.9546 11.2563 17.1187C11.4204 17.2828 11.6429 17.375 11.875 17.375H12.75C12.9821 17.375 13.2046 17.2828 13.3687 17.1187C13.5328 16.9546 13.625 16.7321 13.625 16.5V14.9425C14.1587 14.4612 14.5 13.77 14.5 13V4.25C14.5 1.1875 11.3675 0.75 7.5 0.75C3.6325 0.75 0.5 1.1875 0.5 4.25V13Z" fill="#3B563C"/>
</svg>
