<svg width="15" height="18" viewBox="0 0 15 18" fill="none" xmlns="http://www.w3.org/2000/svg">
<path d="M12.75 10.4287C13.3467 10.4287 13.919 10.6545 14.341 11.0563C14.7629 11.4582 15 12.0032 15 12.5716V13.0823C15 15.6373 11.8425 17.5716 7.5 17.5716C3.1575 17.5716 0 15.738 0 13.0823V12.5716C0 12.0032 0.237053 11.4582 0.65901 11.0563C1.08097 10.6545 1.65326 10.4287 2.25 10.4287H12.75ZM7.5 0.428711C8.09095 0.428711 8.67611 0.539564 9.22208 0.754941C9.76804 0.970319 10.2641 1.286 10.682 1.68397C11.0998 2.08193 11.4313 2.55439 11.6575 3.07435C11.8836 3.59432 12 4.15162 12 4.71443C12 5.27723 11.8836 5.83453 11.6575 6.3545C11.4313 6.87446 11.0998 7.34692 10.682 7.74488C10.2641 8.14285 9.76804 8.45853 9.22208 8.67391C8.67611 8.88929 8.09095 9.00014 7.5 9.00014C6.30653 9.00014 5.16193 8.54861 4.31802 7.74488C3.47411 6.94115 3 5.85107 3 4.71443C3 3.57778 3.47411 2.48769 4.31802 1.68397C5.16193 0.88024 6.30653 0.428711 7.5 0.428711Z" fill="#3B563C"/>
</svg>
