<svg width="351" height="81" viewBox="0 0 351 81" fill="none" xmlns="http://www.w3.org/2000/svg">
<path fill-rule="evenodd" clip-rule="evenodd" d="M24.1108 39.0703C24.5586 38.6191 24.7827 38.0391 24.7827 37.3281V23.9922C24.7827 22.4043 23.981 21.6094 22.377 21.6094C21.6694 21.6094 21.0913 21.8359 20.6431 22.2852C20.2183 22.7129 20.0063 23.2812 20.0063 23.9922V37.3281C20.0063 38.0391 20.2183 38.6191 20.6431 39.0703C20.8457 39.2617 21.0747 39.4121 21.3296 39.5176C21.3799 39.5391 21.4316 39.5586 21.4844 39.5762C21.5933 39.6113 21.7065 39.6426 21.8247 39.6641C21.999 39.6953 22.1831 39.7109 22.377 39.7109C23.0845 39.7109 23.6626 39.4961 24.1108 39.0703ZM20.2891 14.8887C20.8789 14.2969 21.5747 14 22.377 14C22.7212 14 23.0435 14.0547 23.3442 14.1641C23.5547 14.2402 23.7544 14.3438 23.9438 14.4727L24.0942 14.584C24.1387 14.6191 24.1826 14.6543 24.2256 14.6934C24.2949 14.7539 24.3628 14.8184 24.4292 14.8887C25.0186 15.457 25.3135 16.1445 25.3135 16.9512C25.3135 17.7578 25.0186 18.457 24.4292 19.0488C23.8628 19.6191 23.1787 19.9023 22.377 19.9023C21.9248 19.9023 21.5063 19.8125 21.1221 19.6309C20.9546 19.5508 20.7935 19.4551 20.6387 19.3438L20.5337 19.2637C20.4502 19.1973 20.3687 19.127 20.2891 19.0488C19.7231 18.457 19.4399 17.7578 19.4399 16.9512C19.4399 16.6621 19.4766 16.3887 19.5488 16.1309C19.5713 16.0527 19.5972 15.9746 19.626 15.8965C19.686 15.7383 19.7612 15.5879 19.8511 15.4414C19.916 15.3359 19.9893 15.2324 20.0698 15.1328L20.1577 15.0293L20.2891 14.8887ZM39.8022 37.5039C40.4102 36.8828 40.8916 36.2051 41.2466 35.4688C41.7461 34.4355 41.9956 33.2891 41.9956 32.0293V31.709C41.9956 31.0215 41.7715 30.4512 41.3237 30.002C40.8755 29.5508 40.3091 29.3262 39.625 29.3262C38.9409 29.3262 38.3633 29.5508 37.8911 30.002C37.4434 30.4512 37.2192 31.0215 37.2192 31.709V32.0293C37.2192 32.2129 37.2051 32.3887 37.1772 32.5586C37.1382 32.7969 37.0718 33.0234 36.9785 33.2383C36.8438 33.5469 36.6528 33.832 36.4053 34.0918C35.8628 34.6367 35.1904 34.9082 34.3887 34.9082C34.2559 34.9082 34.1265 34.9004 34.0005 34.8848C33.9087 34.873 33.8184 34.8594 33.73 34.8398C33.6294 34.8184 33.5312 34.793 33.4351 34.7617C33.231 34.6953 33.0366 34.6055 32.8525 34.4941C32.6709 34.3828 32.4985 34.248 32.3364 34.0918C31.7939 33.5215 31.5225 32.834 31.5225 32.0293V26.4805H39.625C40.6904 26.4805 41.3965 26.1152 41.7437 25.3828C41.8228 25.2148 41.8833 25.0293 41.9253 24.8242C41.9722 24.5938 41.9956 24.3398 41.9956 24.0625C41.9956 23.3516 41.7715 22.7832 41.3237 22.3555C40.9868 22 40.561 21.7832 40.0464 21.709C39.9121 21.6895 39.7715 21.6797 39.625 21.6797H31.5225V19.7949C31.5225 19.084 31.2983 18.5039 30.8501 18.0527C30.4019 17.6035 29.8242 17.377 29.1162 17.377C28.4087 17.377 27.8311 17.6035 27.3828 18.0527C26.958 18.5039 26.7456 19.084 26.7456 19.7949V32.0293C26.7456 34.209 27.4771 36.0352 28.9395 37.5039C30.4019 38.9746 32.2183 39.709 34.3887 39.709C36.5352 39.709 38.3394 38.9746 39.8022 37.5039ZM9.02295 34.9805C9.16309 34.9805 9.30078 34.9746 9.43555 34.9629C9.62256 34.9473 9.80469 34.9199 9.98193 34.8809C10.7559 34.7129 11.439 34.332 12.0308 33.7363C12.8799 32.8828 13.3047 31.8633 13.3047 30.6777C13.3047 29.4922 12.8799 28.4844 12.0308 27.6543C11.2051 26.8262 10.2026 26.4102 9.02295 26.4102C7.84375 26.4102 6.84131 26.8262 6.01562 27.6543C5.18994 28.4844 4.77734 29.4922 4.77734 30.6777V44.582C4.77734 44.9062 4.73096 45.2031 4.63818 45.4707C4.52686 45.793 4.34912 46.0781 4.10498 46.3242C4.01904 46.4102 3.92871 46.4883 3.8335 46.5586L3.73828 46.625C3.67578 46.666 3.61133 46.7031 3.54541 46.7363C3.48877 46.7656 3.43066 46.793 3.37109 46.8184C3.29639 46.8496 3.21973 46.877 3.14062 46.8984L3.00537 46.9336L2.91797 46.9512C2.74512 46.9844 2.56299 47 2.37109 47C1.66357 47 1.08545 46.7754 0.637207 46.3242C0.212891 45.873 0.000488281 45.293 0.000488281 44.582V30.6777C0.000488281 28.1172 0.861328 25.9727 2.5835 24.2402C4.3291 22.4863 6.47559 21.6094 9.02295 21.6094C11.5708 21.6094 13.7173 22.4863 15.4629 24.2402C17.2085 25.9727 18.0811 28.1172 18.0811 30.6777C18.0811 31.4688 17.9976 32.2207 17.8311 32.9355C17.4585 34.5332 16.6694 35.9375 15.4629 37.1504C13.7173 38.9043 11.5708 39.7812 9.02295 39.7812C8.31543 39.7812 7.73779 39.5566 7.28955 39.1055C7.0542 38.8555 6.88428 38.5664 6.7793 38.2383C6.69482 37.9727 6.65234 37.6797 6.65234 37.3633C6.65234 36.6523 6.86475 36.082 7.28955 35.6562C7.46436 35.4805 7.65918 35.3379 7.87402 35.2305C8.20898 35.0645 8.5918 34.9805 9.02295 34.9805ZM56.04 50.8477L48.0801 50.8242L48.0581 57.9023L40.1001 57.877L40.0776 64.9551L48.0376 64.9766L48.0581 57.9023L56.0181 57.9238L56.04 50.8477ZM40.021 50.8027L32.061 50.7812L32.0386 57.8574L24.0806 57.834L24.0586 64.9102L32.0186 64.9336L32.0386 57.8574L39.9985 57.8809L40.021 50.8027ZM24.001 50.7578L16.041 50.7344L16.019 57.8105L8.06104 57.7891L8.03857 64.8672L15.9985 64.8887L16.019 57.8105L23.979 57.834L24.001 50.7578ZM7.98145 50.7129L0.0214844 50.6914L0 57.7676L7.95996 57.791L7.98145 50.7129ZM64.0996 64.8652L56.1396 64.8438L56.1621 57.7676L64.1221 57.7891L64.0996 64.8652ZM64.1221 57.7891L64.1416 50.7148L72.1016 50.7363L72.0796 57.8125L64.1221 57.7891ZM80.1201 64.9121L72.1602 64.8887L72.1821 57.8125L80.1421 57.8359L80.1201 64.9121ZM80.1421 57.8359L80.1606 50.7578L88.1206 50.7793L88.0986 57.8574L80.1421 57.8359ZM96.1392 64.9551L88.1792 64.9336L88.2017 57.8574L96.1616 57.8789L96.1392 64.9551ZM96.1616 57.8789L96.1812 50.8027L104.141 50.8242L104.119 57.9004L96.1616 57.8789ZM112.202 50.6914L120.162 50.7129L120.14 57.7891L112.18 57.7676L112.202 50.6914ZM104.199 64.9766L112.159 65L112.181 57.9238L104.221 57.9004L104.199 64.9766ZM74.1123 32.373C74.1123 34.5234 73.3901 36.3418 71.9453 37.8301C70.5005 39.2949 68.7183 40.0273 66.5977 40.0273C64.4541 40.0273 62.6597 39.2949 61.2153 37.8301C59.7705 36.3652 59.0483 34.5469 59.0483 32.373V20.1855C59.0483 19.4766 59.2578 18.8984 59.6772 18.4492C60.1201 18 60.6909 17.7754 61.3901 17.7754C61.5034 17.7754 61.6128 17.7812 61.7192 17.793C61.9126 17.8145 62.0947 17.8555 62.2656 17.916C62.4849 17.9922 62.6855 18.1016 62.8687 18.2422C62.9502 18.3047 63.0283 18.373 63.1025 18.4492C63.5454 18.8984 63.7666 19.4766 63.7666 20.1855V22.0625H71.7705C72.4697 22.0625 73.0288 22.2871 73.4482 22.7363C73.5376 22.8223 73.6182 22.9141 73.6895 23.0117C73.8003 23.1621 73.8892 23.3281 73.9565 23.5078C74.0605 23.7852 74.1123 24.0938 74.1123 24.4375C74.1123 26.043 73.3315 26.8457 71.7705 26.8457H63.7666V32.373C63.7666 32.6406 63.7964 32.8965 63.856 33.1367C63.9019 33.3242 63.9663 33.5039 64.0483 33.6758C64.1021 33.7871 64.1636 33.8965 64.2329 34.002C64.3301 34.1523 64.4424 34.293 64.5703 34.4277C65.1299 34.9727 65.8057 35.2441 66.5977 35.2441C67.0015 35.2441 67.3716 35.1738 67.7085 35.0332L67.8452 34.9707C67.9014 34.9434 67.957 34.9141 68.0112 34.8828L68.1343 34.8047C68.2954 34.6992 68.4473 34.5723 68.5898 34.4277C69.126 33.8613 69.394 33.1758 69.394 32.373V32.0547C69.394 31.3691 69.6152 30.8027 70.0581 30.3535C70.1543 30.2617 70.2544 30.1777 70.3594 30.1035C70.4194 30.0605 70.481 30.0234 70.5439 29.9883C70.5972 29.957 70.6519 29.9277 70.7075 29.9023L70.814 29.8574C70.9404 29.8066 71.0723 29.7676 71.2095 29.7383C71.3193 29.7148 71.4326 29.6992 71.5493 29.6914L71.6436 29.6855L71.7705 29.6816C72.4463 29.6816 73.0054 29.9043 73.4482 30.3535C73.8911 30.8027 74.1123 31.3691 74.1123 32.0547V32.373ZM52.6523 28.8965C52.6523 28.5469 52.7212 28.2324 52.8589 27.9492L52.9263 27.8242L52.9746 27.7441C53.0083 27.6934 53.0449 27.6426 53.084 27.5918L53.1548 27.5078L53.2544 27.3984C53.481 27.1699 53.7529 27 54.0698 26.8848C54.2173 26.8301 54.375 26.7891 54.5425 26.7598L54.688 26.7383C54.752 26.7285 54.8174 26.7227 54.8843 26.7188C55.3413 26.6738 55.7393 26.5527 56.0786 26.3594C56.1636 26.3105 56.2446 26.2578 56.3223 26.1992C56.3643 26.168 56.4053 26.1348 56.4453 26.0996C56.4932 26.0586 56.5396 26.0156 56.5845 25.9707C57.0098 25.543 57.2222 24.9844 57.2222 24.2949C57.2222 23.5801 56.998 23.0098 56.5493 22.582C56.3726 22.4043 56.1758 22.2617 55.959 22.1543C55.625 21.9863 55.2432 21.9043 54.8135 21.9043C52.853 21.9043 51.1997 22.582 49.8535 23.9375C48.5308 25.2695 47.8696 26.9219 47.8696 28.8965V30.8574L47.834 32.3203V33.0332C47.834 33.6523 47.6216 34.1758 47.1963 34.6035C46.7949 35.0078 46.2871 35.209 45.6733 35.209C44.9644 35.209 44.3857 35.4355 43.937 35.8867C43.7642 36.0703 43.626 36.2754 43.5234 36.5039C43.374 36.8359 43.2993 37.2129 43.2993 37.6348C43.2993 38.3496 43.5122 38.9316 43.937 39.3828C44.0063 39.4492 44.0791 39.5098 44.1548 39.5664L44.2588 39.6406C44.3721 39.7148 44.4917 39.7773 44.6177 39.8301C44.7075 39.8691 44.8008 39.9004 44.8975 39.9277C44.9785 39.9512 45.0615 39.9688 45.147 39.9824L45.2925 40.0039L45.5142 40.0215L45.6733 40.0254C47.6099 40.0254 49.2393 39.3477 50.562 37.9922C51.9082 36.6367 52.5933 34.9844 52.6167 33.0332L52.6523 28.8965ZM112.144 35.2324C113.33 35.2324 114.338 34.8184 115.168 33.9922C116.022 33.1426 116.449 32.1289 116.449 30.9492C116.449 29.7695 116.022 28.7656 115.168 27.9395C114.338 27.1133 113.33 26.7012 112.144 26.7012C110.958 26.7012 109.95 27.1133 109.12 27.9395C108.834 28.2246 108.598 28.5293 108.41 28.8555C108.053 29.4785 107.874 30.1758 107.874 30.9492V44.7891C107.874 45.4961 107.649 46.0742 107.198 46.5234C106.748 46.9727 106.167 47.1953 105.455 47.1953C104.743 47.1953 104.162 46.9727 103.711 46.5234C103.285 46.0742 103.071 45.4961 103.071 44.7891V30.9492C103.071 28.4004 103.937 26.2637 105.668 24.541C107.423 22.7949 109.582 21.9219 112.144 21.9219C114.706 21.9219 116.864 22.7949 118.619 24.541C120.374 26.2637 121.252 28.4004 121.252 30.9492C121.252 32.0371 121.092 33.0527 120.771 33.9941C120.342 35.2578 119.625 36.3906 118.619 37.3906C116.864 39.1367 114.706 40.0098 112.144 40.0098C111.822 40.0098 111.527 39.9629 111.259 39.8711C110.934 39.7617 110.647 39.584 110.4 39.3379C109.973 38.8887 109.76 38.3105 109.76 37.6035C109.76 36.8945 109.973 36.3281 110.4 35.9043C110.669 35.6367 110.984 35.4492 111.346 35.3418C111.59 35.2695 111.856 35.2324 112.144 35.2324ZM87.0513 20.2656C87.457 20.1621 87.9253 20.1016 88.4858 20.084L88.9224 20.082C89.1089 20.082 89.3013 20.0859 89.4048 20.0898C89.8237 20.1055 90.2798 20.1348 90.7603 20.1758L90.9658 20.1914L90.8955 20.2676C90.8047 20.3594 90.6968 20.4746 90.5186 20.666C90.29 20.9141 90.1426 21.0508 89.9941 21.1562C89.6816 21.375 89.3145 21.5 88.7695 21.5703C88.6396 21.5879 88.5366 21.5977 88.3716 21.6074L88.0605 21.627C87.1177 21.6797 86.5649 21.7539 85.9922 21.9082C85.8779 21.9395 85.7734 21.9688 85.6514 22.0078C85.5054 22.0527 85.334 22.1094 85.0889 22.1934L84.6104 22.3574L84.4458 22.3926L84.5205 22.2695C85.2153 21.1445 85.9819 20.5371 87.0513 20.2656ZM83.9683 20.4199C84.2959 20.3496 84.6768 20.3027 85.0688 20.2832C85.167 20.2773 85.3076 20.2754 85.3979 20.2773L85.4858 20.2832C85.4858 20.2988 85.4209 20.4199 85.3789 20.4844C85.2783 20.6387 85.1738 20.7598 84.9727 20.9629C84.751 21.1836 84.5835 21.334 84.1641 21.6836L83.7817 22.0039L83.5884 22.168L83.4238 22.3184L83.356 22.3848L83.3135 22.3477C83.1763 22.2266 83.0439 22.0918 82.9497 21.9766C82.6763 21.6367 82.6016 21.3398 82.728 21.0879C82.875 20.793 83.3057 20.5605 83.9683 20.4199ZM93.5527 20.4824L93.687 20.4707C93.8188 20.4629 93.9517 20.4668 94.0854 20.4805C94.1958 20.4922 94.3071 20.5117 94.4185 20.5371C94.5527 20.5684 94.687 20.6113 94.8223 20.6641C95.2437 20.8281 95.668 21.0977 96.0884 21.4668C96.6606 21.9688 97.2119 22.6621 97.6104 23.377C98.3843 24.7695 98.9077 27.1523 99.0298 29.8398C99.043 30.1406 99.0596 30.7695 99.0605 31.0312C99.061 31.1309 99.0474 31.7539 99.041 31.9238C98.9731 33.7168 98.7388 35.2402 98.3496 36.4141C98.1909 36.8926 98.0039 37.3789 97.814 37.8105C97.5356 38.4414 97.2324 38.998 96.9077 39.4766C96.4624 40.1328 95.9766 40.6406 95.4595 40.9883C95.0654 41.252 94.6489 41.4219 94.2368 41.4902C93.9893 41.5293 93.7095 41.5352 93.4629 41.5039C92.625 41.3965 91.7993 40.8906 91.0674 40.0371C90.502 39.3789 90.0039 38.5215 89.6021 37.5156C89.2388 36.6074 88.96 35.5977 88.7705 34.5098C88.6328 33.7188 88.542 32.8887 88.5005 32.0254C88.48 31.6055 88.4756 31.1035 88.4868 30.6133L88.5029 30.1387C88.542 29.2949 88.6343 28.4062 88.7671 27.6016C89.0591 25.834 89.5459 24.3242 90.1978 23.1641C90.8223 22.0527 91.5928 21.2656 92.4873 20.8262C92.6235 20.7578 92.7578 20.7012 92.8892 20.6523C93.0605 20.5879 93.2266 20.541 93.3857 20.5098L93.5527 20.4824ZM81.6445 22.0898C81.7246 22.0488 81.8008 22.0215 81.8721 22.0078C81.9136 22 81.9795 21.998 82.0322 22.0059L82.0894 22.0156C82.1396 22.0312 82.1855 22.0527 82.228 22.082L82.2598 22.1074C82.3247 22.1641 82.3804 22.2402 82.4292 22.3418C82.4961 22.4824 82.5356 22.6367 82.563 22.8652C82.5771 22.9863 82.5771 23.3438 82.563 23.4922C82.543 23.6973 82.5068 23.918 82.4624 24.1113L82.4292 24.2461L82.3838 24.4062C82.3765 24.4277 81.4941 26.0352 81.4839 26.0449C81.4824 26.0469 81.3887 25.9531 81.2759 25.8379L80.8037 25.3574C80.373 24.9219 80.1167 24.6504 79.9282 24.4316L79.8428 24.334L79.853 24.3164L79.9399 24.1641C80.186 23.7344 80.4258 23.3633 80.6543 23.0547C80.8149 22.8398 80.9702 22.6562 81.1182 22.5039C81.1768 22.4434 81.231 22.3906 81.2822 22.3438L81.3818 22.2598C81.4712 22.1895 81.5557 22.1348 81.6445 22.0898ZM85.7666 22.5527C86.5493 22.3281 87.4985 22.209 88.6875 22.1875C89.0605 22.1797 89.144 22.1797 89.144 22.1875L87.9111 24.8906L87.5786 24.8984C86.1865 24.9238 85.5054 25.0273 84.6147 25.3496L84.3628 25.4434L84.168 25.5195L83.7729 25.6758C83.0391 25.9668 82.3892 26.2168 82.3892 26.207C82.3892 26.1855 82.5103 25.7988 82.5659 25.6426C83.1548 23.9824 84.1519 23.0195 85.7666 22.5527ZM78.958 26.2559C79.1382 25.832 79.3335 25.4961 79.5601 25.2207L79.6055 25.166L79.6313 25.1777L79.7354 25.2305C79.7998 25.2637 79.875 25.3047 79.9131 25.3281C80.2715 25.5352 80.5332 25.7617 80.7178 26.0312C80.8691 26.2539 80.9688 26.5059 81.0273 26.8027C81.0518 26.9258 81.0674 27.0547 81.0762 27.1973C81.0815 27.2852 81.0845 27.3789 81.0845 27.4785C81.0845 27.5996 81.083 27.6758 81.0747 27.8164L81.0532 28.1289C80.959 29.4434 80.8892 30.832 80.8652 31.873L80.8579 32.043L79.5557 31.0078L78.2573 29.9727L78.2554 29.9492C78.2524 29.918 78.2642 29.6211 78.2744 29.459C78.3496 28.2637 78.5962 27.1074 78.958 26.2559ZM83.187 26.6426C83.9829 25.9434 85.085 25.5742 86.5093 25.5273C86.6367 25.5234 87.0439 25.5234 87.1758 25.5293L87.5435 25.5488L87.7246 25.5605L87.8027 25.5703C87.8047 25.5723 87.5723 27.0059 87.396 28.0859L87.2026 29.2617L86.5181 29.3574C85.7056 29.4668 85.3779 29.5195 85.0376 29.5957C84.5811 29.6973 84.2061 29.8301 83.8613 30.0176C83.6006 30.1602 83.3574 30.334 83.1094 30.5508C83.0659 30.5879 82.9907 30.6602 82.9072 30.7441C82.7856 30.8652 82.6465 31.0098 82.5645 31.0996C82.3374 31.3516 82.1987 31.4844 81.8955 31.7441L81.6206 31.9785L81.6167 31.9355C81.6001 31.7441 81.5967 31.0039 81.6118 30.7129C81.6626 29.7109 81.8101 28.9434 82.0859 28.248C82.2085 27.9375 82.3569 27.6523 82.5298 27.3945C82.7202 27.1094 82.9399 26.8574 83.187 26.6426ZM93.3887 25.9883C93.6123 25.8262 93.8252 25.7441 94.0781 25.7207C94.1221 25.7168 94.1807 25.7168 94.2402 25.7227C94.7344 25.7695 95.1743 26.1465 95.5493 26.8457C95.7788 27.2734 95.937 27.7832 96.063 28.5C96.334 30.041 96.3413 32.1504 96.0801 33.4336C95.9668 33.9922 95.7104 34.7344 95.4863 35.1582C95.1475 35.7969 94.79 36.1406 94.3677 36.2324L94.3154 36.2402L94.2959 36.2441L94.1831 36.2461H94.1221L94.0327 36.2383L93.9863 36.2305L93.9395 36.2168L93.8628 36.1953C93.6094 36.1113 93.3618 35.9277 93.1304 35.6621C92.8813 35.377 92.6514 34.998 92.4531 34.5508C92.1958 33.9707 91.9927 33.2734 91.8721 32.5117C91.7803 31.9297 91.7427 31.3965 91.749 30.7695C91.7524 30.4609 91.7549 30.3867 91.7729 30.1309C91.8218 29.4316 91.9478 28.709 92.1362 28.0527C92.3296 27.377 92.6089 26.8145 92.9619 26.3906C93.0098 26.332 93.0693 26.2676 93.1318 26.207C93.1846 26.1562 93.2393 26.1074 93.291 26.0645L93.3887 25.9883ZM83.3501 31.0684C84.0801 30.4258 85.1182 30.0801 86.4639 30.0312C86.5586 30.0273 86.6719 30.0254 86.7876 30.0254L87.1133 30.0312L87.3042 30.0391L87.3569 32.0625L87.4116 34.1738L87.415 34.2637L87.3535 34.3027C87.1836 34.4141 87.0352 34.4805 86.7192 34.5898C86.6152 34.625 86.5571 34.6465 86.4717 34.6836C86.4023 34.7148 86.3154 34.7578 86.1719 34.8301C85.75 35.0391 85.6021 35.1191 85.4146 35.248C85.1079 35.457 84.7539 35.7617 84.2095 36.3008C83.9565 36.5508 83.6631 36.8496 83.3145 37.2129L83.0415 37.4941L82.9771 37.3438C82.5718 36.3457 82.3301 35.4336 82.2446 34.5801C82.2197 34.332 82.2158 34.252 82.2158 33.9434C82.2158 33.6445 82.2188 33.5742 82.2417 33.3672C82.3281 32.5684 82.5977 31.9043 83.0498 31.375C83.1221 31.2891 83.269 31.1387 83.3501 31.0684ZM78.2261 31.5195C78.2227 31.4375 78.2202 31.2383 78.2202 31.0801V30.791L78.3208 30.8438C78.6074 30.9941 78.855 31.1484 79.0864 31.3281C79.251 31.4551 79.4072 31.5938 79.5645 31.752C79.7451 31.9336 79.9077 32.1191 80.062 32.3223C80.1958 32.5 80.3237 32.6914 80.4512 32.9043C80.9058 33.6621 81.2871 34.5918 81.7754 36.1328C81.9409 36.6543 82.1641 37.375 82.1611 37.377C82.1592 37.3789 82.0776 37.3633 81.98 37.3438C81.5469 37.252 81.2129 37.1719 80.9341 37.0918C80.7617 37.043 80.6104 36.9922 80.4697 36.9395C79.6416 36.627 79.1348 36.1914 78.8994 35.5918C78.8818 35.5488 78.8496 35.457 78.8276 35.3887C78.5884 34.6562 78.3965 33.6133 78.2944 32.541C78.2773 32.3633 78.2632 32.1816 78.2515 32.0039C78.2407 31.8418 78.2319 31.6797 78.2261 31.5195ZM85.6074 35.584C86.0439 35.3574 86.5132 35.2344 87.0488 35.2031L87.2832 35.2012L87.4409 35.2051L87.5249 35.207L87.5645 35.2109L88.0718 36.873L88.5811 38.5488C88.583 38.5586 88.5684 38.5664 88.4707 38.6152C88.2715 38.7109 88.1108 38.7695 87.7656 38.873C87.4316 38.9707 87.2842 39.0254 87.0908 39.123C86.8755 39.2305 86.6846 39.3555 86.4668 39.5293C86.2856 39.6738 86.1567 39.7969 85.9209 40.0527C85.6968 40.2949 85.5742 40.4043 85.3804 40.5332L85.2939 40.5898C85.2539 40.6152 85.2334 40.625 85.2285 40.623C85.2002 40.6133 84.978 40.418 84.8667 40.3066C84.3501 39.7871 84.0518 39.1738 83.979 38.4805C83.9712 38.4062 83.9683 38.2832 83.9692 38.168C83.9702 38.0859 83.9736 38.0059 83.979 37.9492C84.0151 37.5879 84.1123 37.252 84.2725 36.9297C84.3364 36.8008 84.3745 36.7363 84.4619 36.6035C84.7461 36.1758 85.1382 35.8262 85.6074 35.584ZM79.8223 37.3379L79.7969 37.2305C79.7969 37.2168 79.8013 37.2188 79.9355 37.2441L79.9644 37.25C80.2231 37.3008 80.4624 37.3652 80.7017 37.4453C81.4023 37.6797 82.0049 38.0508 82.5366 38.5723C82.6592 38.6934 82.7559 38.791 82.8579 38.9004C83.0142 39.0703 83.1831 39.2734 83.4805 39.6387C83.8452 40.0859 83.9395 40.1973 84.1733 40.4551C84.3784 40.6816 84.5322 40.8613 84.6689 41.041C84.7524 41.1504 84.8296 41.2578 84.9087 41.375C84.9932 41.502 85.1626 41.7695 85.1626 41.7773H84.9561L84.8052 41.7734C84.5176 41.752 84.229 41.6953 83.938 41.6016C83.5869 41.4902 83.2314 41.3262 82.8682 41.1074C82.4966 40.8828 82.1421 40.6172 81.7764 40.2891C81.6709 40.1934 81.3306 39.8516 81.2339 39.7441C80.9526 39.4316 80.708 39.1152 80.5 38.7969C80.3647 38.5879 80.2446 38.3789 80.1401 38.168C79.9873 37.8594 79.8945 37.6172 79.8223 37.3379ZM87.4321 39.5996C87.7568 39.4785 88.1118 39.4023 88.4888 39.3691C88.561 39.3633 88.9556 39.3652 88.9722 39.373C88.9775 39.375 89.3462 39.7969 89.7759 40.293L90.9062 41.5996L91.1138 41.8418C91.1099 41.8457 90.3003 41.8887 89.9751 41.9023C88.7622 41.9512 87.8667 41.9141 87.2686 41.7871C86.9502 41.7207 86.7163 41.627 86.5635 41.5098C86.4795 41.4453 86.4253 41.375 86.3647 41.252C86.2808 41.082 86.2466 40.9355 86.2529 40.7715C86.2573 40.6543 86.2827 40.5488 86.3335 40.4414C86.418 40.2578 86.5728 40.0859 86.7847 39.9336C86.9629 39.8066 87.1812 39.6934 87.4321 39.5996ZM279.717 17.1016C279.631 17.1426 279.556 17.1992 279.479 17.2891C279.288 17.5137 279.089 17.9453 278.694 18.8594C278.496 19.3184 278.352 19.6465 278.235 19.8848C277.99 20.3867 277.871 20.4941 277.643 20.5938C277.604 20.6113 277.539 20.6309 277.459 20.6523C277.333 20.6875 277.172 20.7266 277.027 20.7539C276.638 20.8281 276.017 20.9551 274.988 21.1738C274.492 21.2793 273.987 21.3203 273.694 21.2793C273.27 21.2188 273.135 21.125 272.329 20.3242C271.954 19.9512 271.689 19.7031 271.474 19.5332C271.236 19.3477 271.058 19.2559 270.855 19.1914C270.131 18.9648 269.428 19.209 268.215 20.1035C268.054 20.2227 267.869 20.3555 267.692 20.4805L267.33 20.7344L267.097 20.8926C266.392 21.3555 265.8 21.75 265.317 22.0781C264.904 22.3594 264.57 22.5918 264.314 22.7773C264.117 22.9199 263.965 23.0352 263.858 23.125C263.783 23.1875 263.729 23.2383 263.697 23.2754C263.522 23.4766 263.349 23.8438 263.307 24.1016C263.235 24.5391 263.35 24.9785 263.798 25.9785C264.19 26.8535 264.234 27.0059 264.234 27.498C264.234 27.9004 264.229 27.9277 264.105 28.1641C263.975 28.4141 263.772 28.7305 263.211 29.5508C263.04 29.8027 262.774 30.2227 262.622 30.4824C262.47 30.7441 262.302 31.0156 262.25 31.084C262.104 31.2773 261.91 31.3789 261.392 31.4355C261.052 31.4727 260.572 31.4902 259.874 31.5039C259.455 31.5117 259.166 31.5195 258.961 31.5273L258.774 31.5352C258.532 31.5488 258.461 31.5684 258.375 31.6094C258.088 31.7402 257.928 31.9785 257.756 32.5234C257.615 32.9727 257.591 33.0879 257.01 35.9883C256.335 39.3633 256.291 39.6777 256.425 40.1973C256.56 40.7148 256.834 40.9219 258.117 41.4727C258.996 41.8477 259.232 41.9844 259.559 42.3066C260.073 42.8145 260.201 43.1836 260.498 45.0234C260.668 46.0762 260.676 46.2402 260.582 46.6055C260.459 47.0762 260.205 47.3984 259.335 48.1914C259.155 48.3555 259.004 48.5078 258.88 48.6543C258.705 48.8594 258.583 49.0508 258.502 49.2402C258.417 49.4434 258.386 49.6172 258.424 49.834C258.464 50.0664 258.582 50.3457 258.793 50.7637C259.004 51.1797 259.258 51.6289 259.565 52.1289C260.064 52.9434 260.703 53.8867 261.52 55.0215C262.088 55.8105 262.5 56.332 262.789 56.6289C262.923 56.7676 263.038 56.8574 263.169 56.9102C263.293 56.9609 263.432 56.9805 263.614 56.9805C264.027 56.9805 264.322 56.8809 265.453 56.3574C265.736 56.2266 265.958 56.1367 266.155 56.0801C266.316 56.0332 266.459 56.0078 266.605 55.998C266.68 55.9941 266.756 55.9941 266.835 55.998C267.135 56.0137 267.194 56.0293 267.475 56.1758C267.792 56.3418 268.181 56.5742 268.554 56.8164C268.868 57.0195 269.171 57.2285 269.41 57.4121C270.019 57.8789 270.434 58.3184 270.628 58.7012C270.695 58.832 270.742 59.0508 270.77 59.3633C270.799 59.6992 270.807 60.1445 270.792 60.707C270.764 61.7832 270.772 61.8379 271 62.0723C271.319 62.3984 272.299 62.6855 274.585 63.1152L276.9 63.5527C277.849 63.7324 278.358 63.8242 278.688 63.8594C278.938 63.8867 279.084 63.8809 279.241 63.8594C279.941 63.7598 280.214 63.4453 280.649 62.2441C280.909 61.5273 281.212 60.9297 281.406 60.75C281.955 60.2422 283.42 59.7617 284.902 59.6016C285.23 59.5664 285.355 59.5664 285.462 59.6016C285.886 59.7422 286.765 60.6406 287.711 61.9023C288.103 62.4258 288.732 63.2559 289.108 63.7461L290.205 65.1836L293.557 69.6016C295.352 71.9688 296.322 73.2344 296.856 73.8984C297.13 74.2402 297.29 74.4219 297.386 74.5117C299.098 76.1152 301.663 76.3262 303.608 75.0273C304.736 74.2734 305.485 73.1641 305.79 71.7969C305.813 71.6895 305.833 71.5254 305.848 71.3359C305.883 70.875 305.888 70.2695 305.848 69.9688C305.798 69.5938 305.667 69.1094 305.5 68.6875C305.264 68.0957 305.204 68.0098 302.475 64.4316L300.845 62.2832C300.418 61.7188 299.981 61.1445 299.874 61.0098C299.322 60.3125 297.674 58.1094 297.314 57.5879C295.764 55.3398 295.077 53.9688 295.168 53.2988C295.207 53.0156 295.656 52.1738 296.227 51.3164C296.667 50.6523 297.047 50.1973 297.417 49.9023C297.711 49.668 298 49.5371 298.307 49.4863C298.439 49.4629 299.067 49.4434 299.703 49.4395C300.451 49.4355 300.732 49.4297 300.883 49.4023C300.938 49.3926 300.975 49.3809 301.011 49.3652C301.539 49.127 301.768 48.5 302.258 45.9551L302.761 43.3516C302.873 42.7734 302.942 42.4102 302.985 42.1504C303.05 41.7559 303.056 41.5977 303.057 41.2793C303.058 40.9844 303.057 40.8457 303.039 40.7461C303.023 40.6621 302.996 40.6035 302.946 40.5059C302.739 40.0938 302.422 39.8887 301.504 39.5703C300.793 39.3223 300.321 39.0996 300.017 38.8691C299.941 38.8105 299.885 38.7637 299.837 38.7129C299.762 38.6328 299.708 38.543 299.63 38.3867C299.389 37.9043 299.171 37.1914 299.024 36.4727C298.898 35.8535 298.825 35.2285 298.837 34.7461C298.849 34.2656 298.858 34.2129 298.958 34.0137C299.13 33.6738 299.351 33.4199 299.98 32.8457C300.171 32.6699 300.364 32.4824 300.506 32.3379C300.604 32.2363 300.678 32.1543 300.71 32.1094C301.036 31.6543 301.125 31.2676 301.01 30.8066C300.885 30.3008 300.562 29.7695 299.29 27.9785C298.646 27.0703 298.282 26.5234 297.96 25.9785C297.305 24.8691 296.951 24.4492 296.469 24.2109C295.868 23.9141 295.451 23.9609 294.275 24.4512C293.723 24.6816 293.419 24.8047 293.209 24.8711C293.006 24.9375 292.892 24.9473 292.727 24.9473C292.499 24.9492 292.331 24.9219 292.065 24.793C291.827 24.6758 291.51 24.4766 291.001 24.1426C289.829 23.375 289.289 23.0156 289.025 22.7852C288.833 22.6152 288.788 22.5156 288.753 22.377C288.73 22.2871 288.703 21.7441 288.693 21.1699C288.687 20.8125 288.674 20.4414 288.659 20.168C288.65 20 288.641 19.8691 288.632 19.8008C288.61 19.6309 288.572 19.4746 288.518 19.334C288.495 19.2754 288.47 19.2188 288.442 19.166C288.317 18.9258 288.134 18.7285 287.891 18.5664C287.352 18.207 286.76 18.0605 284.651 17.7676C284.467 17.7422 284.183 17.6934 283.868 17.6348C283.522 17.5723 283.139 17.4961 282.812 17.4258C281.049 17.0508 280.273 16.9434 279.939 17.0273C279.855 17.0488 279.783 17.0703 279.717 17.1016ZM347.854 24.2148C346.737 24.3086 345.788 25.1289 345.502 26.248C345.429 26.5352 345.428 26.7031 345.428 34.0918V35.6309C345.428 41.4863 345.428 41.9434 345.605 42.3164L345.709 42.5156C346.188 43.4824 347.035 44.0137 348.101 44.0156C349.362 44.0176 350.427 43.1953 350.763 41.9629C350.827 41.7305 350.831 41.2793 350.831 34.0938C350.831 26.8379 350.827 26.4609 350.762 26.2285C350.633 25.7734 350.31 25.2246 350.01 24.9492C349.825 24.7793 349.631 24.6387 349.428 24.5273C348.958 24.2676 348.439 24.166 347.854 24.2148ZM278.661 26.3281C276.8 26.4668 274.825 27.0059 273.22 27.8125C271.659 28.5957 270.429 29.4922 269.256 30.6973C268.223 31.7598 267.517 32.7539 266.85 34.0898C266.129 35.5352 265.712 36.9531 265.497 38.6953C265.419 39.3242 265.432 41.5469 265.518 42.1719C265.797 44.207 266.432 46.043 267.463 47.7891C267.962 48.6348 268.566 49.4414 269.241 50.1719C269.966 50.959 270.774 51.6582 271.622 52.2246C272.472 52.793 273.364 53.2617 274.295 53.6289C275.625 54.1543 277.035 54.4746 278.517 54.5879C278.798 54.6094 279.193 54.6191 279.608 54.6172C280.288 54.6133 281.023 54.582 281.412 54.5312C284.714 54.0977 287.973 52.3398 290.196 49.7949C292.271 47.4199 293.424 44.6484 293.678 41.4316C293.732 40.7539 293.702 39.4219 293.619 38.7695C293.341 36.5938 292.517 34.3789 291.312 32.5742C289.888 30.4395 288.092 28.8418 285.863 27.7227C285.092 27.3359 284.263 27.0234 283.399 26.7891C282.884 26.6504 282.356 26.5391 281.821 26.457C281.485 26.4062 281.147 26.3672 280.807 26.3398C280.358 26.3047 279.068 26.2969 278.661 26.3281ZM278.623 30.7129C276.716 30.9023 274.855 31.6367 273.333 32.7969C272.819 33.1895 271.887 34.1328 271.485 34.666C270.408 36.0977 269.746 37.7266 269.517 39.5117C269.438 40.1348 269.458 41.5332 269.555 42.1719C270.074 45.5684 272.305 48.4375 275.457 49.7695C276.978 50.4102 278.366 50.6719 279.969 50.6191C281.516 50.5664 282.892 50.2227 284.243 49.5469C284.997 49.1699 285.692 48.6621 286.377 47.9922C287.151 47.2324 287.467 46.5547 287.47 45.6504C287.474 44.7871 287.132 44.1445 286.361 43.5586C285.799 43.1309 285.303 42.9727 284.613 43C283.909 43.0293 283.482 43.2188 282.483 43.9531C281.589 44.6094 281.17 44.8359 280.547 45C279.91 45.168 279.09 45.1914 278.462 45.0586C277.44 44.8457 276.39 44.082 275.693 43.041C274.785 41.6875 274.648 40.2969 275.289 38.9258C275.788 37.8594 276.614 37.0078 277.618 36.5234C278.32 36.1855 279.022 36.0645 279.83 36.1426C280.814 36.2363 281.435 36.4961 282.439 37.2383C283.274 37.8535 283.663 38.0684 284.189 38.2031C284.861 38.375 285.576 38.2344 286.206 37.8086C286.633 37.5176 286.949 37.1953 287.158 36.834C287.278 36.625 287.363 36.4004 287.414 36.1621C287.451 35.9824 287.469 35.793 287.468 35.5957C287.461 34.7012 287.154 34.0156 286.434 33.2949C285.074 31.9316 283.37 31.1172 281.182 30.7832C280.607 30.6953 279.196 30.6562 278.623 30.7129ZM315.314 31.2812C313.239 31.4434 311.307 32.2246 309.756 33.5293C308.542 34.5527 307.742 35.584 307.035 37.041C306.611 37.9141 306.328 38.834 306.188 39.7871C306.039 40.8008 306.052 41.8496 306.229 42.9141C306.347 43.625 306.57 44.3594 306.877 45.0703C307.317 46.0898 307.928 47.0625 308.644 47.8555C310.004 49.3652 311.742 50.4297 313.631 50.916C314.408 51.1152 314.833 51.1699 315.779 51.1895C316.741 51.2109 317.174 51.168 317.974 50.9727C318.739 50.7852 319.747 50.3555 320.507 49.8926L320.674 49.7949L320.761 49.7461C320.832 49.707 320.88 49.6816 320.89 49.6816C320.908 49.6816 320.976 49.7637 321.042 49.8652C321.113 49.9766 321.217 50.0977 321.336 50.2148C321.462 50.3379 321.606 50.4551 321.745 50.5508C321.818 50.5996 321.891 50.6426 321.959 50.6777C322.368 50.8828 322.661 50.9512 323.153 50.9512C323.631 50.9512 323.92 50.8867 324.335 50.6895C325.038 50.3574 325.531 49.8047 325.802 49.0449L325.921 48.7109V44.5098C325.921 42.4824 325.919 41.416 325.909 40.8047C325.904 40.5039 325.896 40.3125 325.886 40.168C325.877 40.0469 325.866 39.9609 325.852 39.873C325.672 38.7246 325.419 37.8926 324.956 36.9258C323.484 33.8438 320.516 31.7109 317.163 31.3242C316.655 31.2656 315.776 31.2441 315.314 31.2812ZM338.869 31.5508C336.49 31.7832 334.287 32.8359 332.552 34.5684C330.847 36.2715 329.875 38.2051 329.515 40.6133C329.475 40.8809 329.458 41.1348 329.451 42.2207C329.447 42.8184 329.447 43.668 329.447 44.9102V48.75L329.55 49.0547C329.745 49.6309 330.092 50.0977 330.576 50.4336C331.078 50.7812 331.634 50.9551 332.184 50.959C332.812 50.9629 333.43 50.7422 333.946 50.3008C334.31 49.9902 334.523 49.6738 334.722 49.1484L334.83 48.8633L334.854 45.1191C334.869 42.7773 334.892 41.3027 334.917 41.1836C335.007 40.7461 335.123 40.3594 335.272 40.0059C335.51 39.4414 335.832 38.9648 336.27 38.5098C336.691 38.0723 337.123 37.7559 337.651 37.4941C338.401 37.125 338.874 37.0098 339.877 36.9492C340.371 36.9199 340.545 36.8945 340.788 36.8125C341.652 36.5215 342.305 35.8809 342.585 35.0449C342.613 34.9629 342.633 34.8789 342.649 34.7793C342.668 34.6582 342.679 34.5137 342.687 34.3223C342.698 34.0312 342.689 33.8047 342.649 33.5938C342.608 33.375 342.534 33.1719 342.416 32.9258C342.259 32.6016 342.04 32.3242 341.769 32.1035C341.5 31.8848 341.181 31.7207 340.821 31.623C340.577 31.5547 340.392 31.5371 339.873 31.5273C339.519 31.5215 339.066 31.5312 338.869 31.5508ZM315.265 36.7734C314.254 36.957 313.279 37.5215 312.624 38.3027C312.314 38.6719 312.056 39.0996 311.87 39.5449C311.762 39.8027 311.678 40.0664 311.623 40.3281C311.541 40.7188 311.53 41.6621 311.604 42.0391C312.058 44.3516 314.146 45.9434 316.439 45.7266C318.072 45.5703 319.383 44.6309 320.097 43.1035C320.908 41.3652 320.501 39.2832 319.083 37.9258C318.471 37.3398 317.644 36.9199 316.812 36.7734C316.423 36.7051 315.636 36.7051 315.265 36.7734ZM347.542 45.3867C347.276 45.4531 347.014 45.5645 346.77 45.7129C346.463 45.9023 346.185 46.1484 345.965 46.4355C345.79 46.6641 345.592 47.1055 345.5 47.4727C345.431 47.7461 345.413 48.0957 345.442 48.4258C345.46 48.6387 345.498 48.8438 345.554 49.0156C345.891 50.0547 346.772 50.7852 347.874 50.9395C349.215 51.127 350.58 50.1777 350.928 48.8145C351.018 48.4648 351.024 47.8652 350.943 47.5195C350.699 46.4824 349.796 45.582 348.782 45.3672C348.421 45.2891 347.901 45.2988 347.542 45.3867ZM195.306 26.041C195.651 25.3359 196.275 24.8379 197.086 24.623C197.411 24.5371 197.934 24.5293 198.299 24.6055C198.446 24.6367 198.725 24.7402 198.925 24.8418C199.422 25.0898 199.861 25.5234 200.091 25.9941C200.399 26.625 200.382 26.4023 200.394 29.7949C200.399 31.457 200.412 32.8398 200.422 32.8652C200.435 32.9004 200.504 32.8809 200.676 32.7949C201.258 32.5 202.298 32.1543 203.058 32.0059C207.457 31.1367 211.851 33.3398 213.846 37.416C214.379 38.5059 214.683 39.5391 214.812 40.7051C214.872 41.2461 214.862 42.4434 214.792 43.0059C214.384 46.332 212.296 49.2695 209.294 50.7441C208.291 51.2363 207.459 51.498 206.404 51.6523C203.262 52.1133 200.17 51.082 197.918 48.8242C196.585 47.4883 195.603 45.7051 195.213 43.918C195.087 43.3379 195.036 43.2598 195.015 41.7773C194.998 40.6172 195 38.5938 195 34.793C195 25.875 194.971 26.7246 195.306 26.041ZM241.37 33.1543C242.461 32.4141 243.802 31.9629 245.241 31.8516C246.766 31.7344 248.442 31.9238 249.765 32.3652C250.748 32.6914 251.414 33.0742 251.905 33.5996C252.786 34.5371 252.93 35.9492 252.247 36.9512C252.008 37.3027 251.748 37.5234 251.341 37.7207C250.917 37.9258 250.672 37.9844 250.261 37.9844C249.879 37.9824 249.694 37.9297 248.659 37.5352C247.526 37.1035 247.14 37.0312 246.166 37.0703C245.226 37.1074 244.824 37.2188 244.559 37.5117C244.342 37.752 244.328 38.0918 244.527 38.2832C244.613 38.3672 244.798 38.4668 245.039 38.5684C245.269 38.6641 245.55 38.7617 245.846 38.8438C247.514 39.3027 248.399 39.5996 249.313 40.0078C250.853 40.6934 251.864 41.498 252.59 42.6152C253.206 43.5645 253.436 44.4668 253.396 45.7812C253.38 46.3281 253.357 46.5469 253.28 46.873C252.796 48.9375 251.142 50.6328 248.919 51.3457C248.407 51.5117 247.975 51.6152 247.508 51.6758C247.125 51.7246 246.717 51.7441 246.223 51.7441C244.855 51.7441 243.615 51.543 242.399 51.123C240.345 50.4102 238.882 49.0879 238.333 47.4434C238.201 47.0508 238.166 46.3301 238.258 45.9375C238.405 45.3086 238.844 44.7578 239.42 44.4746C239.861 44.2578 240.149 44.1914 240.63 44.1953C241.505 44.2012 242.297 44.5332 243.057 45.2109C244.059 46.1035 245.229 46.5645 246.355 46.5098C247.388 46.459 248.064 46.0605 247.971 45.5586C247.896 45.1602 247.116 44.7363 245.296 44.1094C244.533 43.8457 244.244 43.7227 243.057 43.1465C241.302 42.2988 240.384 41.5723 239.666 40.4668C239.232 39.7988 239.031 39.1973 238.964 38.3672C238.909 37.6855 238.97 37.0039 239.141 36.3555C239.303 35.7383 239.564 35.1504 239.917 34.6172C240.217 34.1621 240.911 33.4648 241.37 33.1543ZM219.041 32.252C219.194 32.1953 219.366 32.1465 219.569 32.0977C219.595 32.0918 219.695 32.0879 219.827 32.0879L220.1 32.0918C220.473 32.1016 220.61 32.1211 220.858 32.2051C221.775 32.5156 222.444 33.2285 222.677 34.1465C222.727 34.3418 222.735 34.9062 222.735 38.2578C222.735 40.6602 222.75 42.2871 222.774 42.5254C222.925 44 223.695 45.1504 224.972 45.8125C225.765 46.2227 226.536 46.375 227.404 46.293C229.042 46.1387 230.228 45.0762 230.662 43.375C230.802 42.8242 230.811 42.5469 230.812 38.5391C230.813 34.3691 230.817 34.2852 230.992 33.8438C231.413 32.7871 232.453 32.0762 233.579 32.0762C233.917 32.0781 234.195 32.123 234.491 32.2344C234.588 32.2715 234.688 32.3145 234.792 32.3652C235.457 32.6934 235.968 33.334 236.158 34.0762C236.23 34.3594 236.232 34.5137 236.232 38.5352C236.231 41.0098 236.216 42.8477 236.194 43.0625C236.014 44.7949 235.46 46.3418 234.507 47.7754C234.113 48.3672 233.693 48.873 233.21 49.3281C232.845 49.6719 232.443 49.9883 231.991 50.2891C231.158 50.8438 230.252 51.2461 229.294 51.4883C228.456 51.6992 227.579 51.7891 226.678 51.7539C224.205 51.6543 222.011 50.707 220.238 48.9746C218.674 47.4473 217.739 45.5977 217.397 43.3574C217.339 42.9707 217.332 42.5039 217.332 38.6152V34.2988L217.421 34.0137C217.538 33.6367 217.674 33.3711 217.898 33.1016C217.961 33.0254 218.031 32.9492 218.109 32.8711C218.41 32.5664 218.666 32.3906 219.041 32.252ZM200.476 41.0469C200.796 39.2188 202.204 37.7539 204.024 37.3594C204.183 37.3242 204.304 37.3066 204.477 37.2988C204.617 37.293 204.791 37.293 205.048 37.2988C205.329 37.3066 205.537 37.3164 205.718 37.3379C206.001 37.373 206.219 37.4375 206.547 37.5605C209.344 38.6191 210.323 42.1211 208.5 44.5488C207.127 46.377 204.513 46.8594 202.577 45.6387C202.014 45.2852 201.535 44.8105 201.172 44.2637C200.841 43.7637 200.606 43.2031 200.494 42.6172C200.415 42.2109 200.406 41.4453 200.476 41.0469Z" fill="#C4C4C4"/>
<path d="M158.95 64.5V14.45H163.6V64.5H158.95Z" fill="#C4C4C4"/>
</svg>
