<svg width="18" height="22" viewBox="0 0 18 22" fill="none" xmlns="http://www.w3.org/2000/svg">
<path fill-rule="evenodd" clip-rule="evenodd" d="M10.1292 1.24658C10.7086 0.551746 11.837 1.02658 11.7453 1.92675L11.0982 8.24991H16.3332C16.5074 8.24998 16.678 8.29967 16.8249 8.39316C16.9719 8.48666 17.0892 8.62009 17.163 8.77783C17.2369 8.93557 17.2643 9.11109 17.242 9.28384C17.2197 9.45659 17.1487 9.61941 17.0372 9.75325L7.87057 20.7532C7.29123 21.4481 6.16282 20.9732 6.25448 20.0731L6.90165 13.7499H1.66657C1.49239 13.7498 1.32183 13.7002 1.17487 13.6067C1.02791 13.5132 0.91063 13.3797 0.836761 13.222C0.762893 13.0643 0.735495 12.8887 0.757775 12.716C0.780056 12.5432 0.851093 12.3804 0.962568 12.2466L10.1292 1.24658Z" fill="#3B563C"/>
</svg>
