<svg width="25" height="25" viewBox="0 0 25 25" fill="none" xmlns="http://www.w3.org/2000/svg">
<path d="M12.5001 0.416992C19.1737 0.416992 24.5834 5.8267 24.5834 12.5003C24.5834 19.174 19.1737 24.5837 12.5001 24.5837C5.82646 24.5837 0.416748 19.174 0.416748 12.5003C0.416748 5.8267 5.82646 0.416992 12.5001 0.416992ZM12.5001 5.25033C12.1796 5.25033 11.8723 5.37763 11.6457 5.60424C11.4191 5.83084 11.2917 6.13819 11.2917 6.45866V12.5003C11.2918 12.8208 11.4192 13.1281 11.6458 13.3546L15.2708 16.9796C15.4987 17.1997 15.8039 17.3215 16.1207 17.3188C16.4376 17.316 16.7406 17.1889 16.9647 16.9649C17.1887 16.7409 17.3158 16.4378 17.3185 16.121C17.3213 15.8042 17.1995 15.4989 16.9794 15.271L13.7084 12.0001V6.45866C13.7084 6.13819 13.5811 5.83084 13.3545 5.60424C13.1279 5.37763 12.8206 5.25033 12.5001 5.25033Z" fill="#B7B6B3"/>
</svg>
