<svg width="16" height="21" viewBox="0 0 16 21" fill="none" xmlns="http://www.w3.org/2000/svg">
<path d="M0.108782 1.10897L0.108782 19.109C0.109353 19.2912 0.159616 19.4698 0.25416 19.6256C0.348704 19.7814 0.483947 19.9085 0.645334 19.9932C0.806722 20.0778 0.988142 20.1169 1.17006 20.1061C1.35199 20.0953 1.52752 20.0351 1.67778 19.932L14.6778 10.932C15.2168 10.559 15.2168 9.66097 14.6778 9.28697L1.67778 0.286972C1.52784 0.182797 1.35221 0.121706 1.16999 0.110337C0.987761 0.0989684 0.805904 0.137756 0.644175 0.222486C0.482445 0.307216 0.347028 0.434648 0.252638 0.590936C0.158248 0.747225 0.108494 0.926392 0.108782 1.10897Z" fill="#315C32"/>
</svg>
