<svg width="20" height="17" viewBox="0 0 20 17" fill="none" xmlns="http://www.w3.org/2000/svg">
<path d="M5.28125 3.24063L4.26172 6.07143H15.7383L14.7188 3.24063C14.543 2.75491 14.0703 2.42857 13.5391 2.42857H6.46094C5.92969 2.42857 5.45703 2.75491 5.28125 3.24063ZM1.54688 6.25357L2.92188 2.43996C3.44922 0.979018 4.86719 0 6.46094 0H13.5391C15.1328 0 16.5508 0.979018 17.0781 2.43996L18.4531 6.25357C19.3594 6.61786 20 7.48683 20 8.5V15.7857C20 16.4574 19.4414 17 18.75 17H17.5C16.8086 17 16.25 16.4574 16.25 15.7857V13.9643H3.75V15.7857C3.75 16.4574 3.19141 17 2.5 17H1.25C0.558594 17 0 16.4574 0 15.7857V8.5C0 7.48683 0.640625 6.61786 1.54688 6.25357ZM5 9.71429C5 9.39224 4.8683 9.08338 4.63388 8.85566C4.39946 8.62793 4.08152 8.5 3.75 8.5C3.41848 8.5 3.10054 8.62793 2.86612 8.85566C2.6317 9.08338 2.5 9.39224 2.5 9.71429C2.5 10.0363 2.6317 10.3452 2.86612 10.5729C3.10054 10.8006 3.41848 10.9286 3.75 10.9286C4.08152 10.9286 4.39946 10.8006 4.63388 10.5729C4.8683 10.3452 5 10.0363 5 9.71429ZM16.25 10.9286C16.5815 10.9286 16.8995 10.8006 17.1339 10.5729C17.3683 10.3452 17.5 10.0363 17.5 9.71429C17.5 9.39224 17.3683 9.08338 17.1339 8.85566C16.8995 8.62793 16.5815 8.5 16.25 8.5C15.9185 8.5 15.6005 8.62793 15.3661 8.85566C15.1317 9.08338 15 9.39224 15 9.71429C15 10.0363 15.1317 10.3452 15.3661 10.5729C15.6005 10.8006 15.9185 10.9286 16.25 10.9286Z" fill="#3B563C"/>
</svg>
