<svg width="21" height="21" viewBox="0 0 21 21" fill="none" xmlns="http://www.w3.org/2000/svg">
<path fill-rule="evenodd" clip-rule="evenodd" d="M2.47395 0.670575C2.7036 0.441267 2.97937 0.263383 3.28297 0.148712C3.58657 0.0340411 3.91108 -0.0147984 4.23498 0.00543016C4.55889 0.0256587 4.87479 0.114493 5.16177 0.266047C5.44874 0.417601 5.70023 0.628413 5.89957 0.884513L8.25551 3.91114C8.68732 4.46633 8.83957 5.18951 8.66895 5.87201L7.95101 8.74639C7.91415 8.89528 7.91628 9.05115 7.95721 9.19898C7.99813 9.3468 8.07646 9.48159 8.18464 9.59033L11.4094 12.8151C11.5183 12.9235 11.6533 13.002 11.8014 13.0429C11.9495 13.0839 12.1056 13.0859 12.2547 13.0488L15.1278 12.3308C15.4646 12.2471 15.816 12.2408 16.1557 12.3124C16.4953 12.384 16.8143 12.5317 17.0886 12.7443L20.1153 15.0989C21.2033 15.9454 21.3031 17.5533 20.3292 18.5258L18.9721 19.8829C18.0008 20.8542 16.5492 21.2808 15.196 20.8043C11.7319 19.5871 8.58697 17.6041 5.99539 15.0031C3.3945 12.4119 1.41155 9.26741 0.194136 5.80376C-0.280989 4.45189 0.145573 2.99895 1.11682 2.0277L2.47395 0.670575Z" fill="#B7B6B3"/>
</svg>
