<svg width="253" height="253" viewBox="0 0 253 253" fill="none" xmlns="http://www.w3.org/2000/svg">
<circle cx="126.5" cy="126.5" r="126.5" fill="#D9D9D9" fill-opacity="0.46"/>
<path d="M126 53C135.465 53 144.718 55.9324 152.588 61.4265C160.458 66.9206 166.592 74.7295 170.214 83.8658C173.836 93.0021 174.784 103.055 172.938 112.755C171.091 122.454 166.533 131.363 159.84 138.355C153.147 145.348 144.62 150.11 135.336 152.039C126.053 153.969 116.431 152.978 107.686 149.194C98.9411 145.41 91.4668 139.001 86.2082 130.779C80.9496 122.556 78.1429 112.889 78.1429 103L78.1907 100.83C78.7259 87.9575 83.9968 75.7978 92.9041 66.8866C101.811 57.9754 113.668 53.0007 126 53ZM145.143 173C157.835 173 170.008 178.268 178.983 187.645C187.958 197.021 193 209.739 193 223V233C193 238.304 190.983 243.391 187.393 247.142C183.803 250.893 178.934 253 173.857 253H78.1429C73.0659 253 68.1968 250.893 64.6068 247.142C61.0168 243.391 59 238.304 59 233V223C59 209.739 64.0421 197.021 73.017 187.645C81.992 178.268 94.1646 173 106.857 173H145.143Z" fill="#F8F7F4"/>
</svg>
