<svg width="21" height="21" viewBox="0 0 21 21" fill="none" xmlns="http://www.w3.org/2000/svg">
<path d="M16.6689 4.2963C15.8667 3.48599 14.9112 2.84351 13.8581 2.40635C12.805 1.96918 11.6754 1.74608 10.5352 1.75005C5.7577 1.75005 1.86395 5.6438 1.86395 10.4213C1.86395 11.9526 2.26645 13.4401 3.01895 14.7526L1.79395 19.2501L6.3877 18.0426C7.65645 18.7338 9.0827 19.1013 10.5352 19.1013C15.3127 19.1013 19.2064 15.2076 19.2064 10.4301C19.2064 8.1113 18.3052 5.93255 16.6689 4.2963ZM10.5352 17.6313C9.2402 17.6313 7.97145 17.2813 6.8602 16.6251L6.5977 16.4676L3.8677 17.1851L4.59395 14.5251L4.41895 14.2538C3.69947 13.1049 3.31744 11.7769 3.31645 10.4213C3.31645 6.4488 6.55395 3.2113 10.5264 3.2113C12.4514 3.2113 14.2627 3.9638 15.6189 5.3288C16.2905 5.99727 16.8227 6.79238 17.1847 7.66805C17.5466 8.54372 17.7312 9.48252 17.7277 10.4301C17.7452 14.4026 14.5077 17.6313 10.5352 17.6313ZM14.4902 12.2413C14.2714 12.1363 13.2039 11.6113 13.0114 11.5326C12.8102 11.4626 12.6702 11.4276 12.5214 11.6376C12.3727 11.8563 11.9614 12.3463 11.8389 12.4863C11.7164 12.6351 11.5852 12.6526 11.3664 12.5388C11.1477 12.4338 10.4477 12.1976 9.6252 11.4626C8.9777 10.8851 8.54895 10.1763 8.4177 9.95755C8.2952 9.7388 8.4002 9.62505 8.51395 9.5113C8.6102 9.41505 8.7327 9.25755 8.8377 9.13505C8.9427 9.01255 8.98645 8.9163 9.05645 8.7763C9.12645 8.62755 9.09145 8.50505 9.03895 8.40005C8.98645 8.29505 8.54895 7.22755 8.37395 6.79005C8.19895 6.37005 8.0152 6.42255 7.88395 6.4138H7.46395C7.3152 6.4138 7.0877 6.4663 6.88645 6.68505C6.69395 6.9038 6.13395 7.4288 6.13395 8.4963C6.13395 9.5638 6.9127 10.5963 7.0177 10.7363C7.1227 10.8851 8.54895 13.0726 10.7189 14.0088C11.2352 14.2363 11.6377 14.3676 11.9527 14.4638C12.4689 14.6301 12.9414 14.6038 13.3177 14.5513C13.7377 14.4901 14.6039 14.0263 14.7789 13.5188C14.9627 13.0113 14.9627 12.5826 14.9014 12.4863C14.8402 12.3901 14.7089 12.3463 14.4902 12.2413Z" fill="#315C32"/>
</svg>
